<svg xmlns="http://www.w3.org/2000/svg" xmlns:xlink="http://www.w3.org/1999/xlink" x="0" y="0" enable-background="new 0 0 220.5 250.7" version="1.1" viewBox="0 0 220.5 250.7" xml:space="preserve"><g id="Réteg_2"><g><rect width="99.2" height="25.9" x="55.5" y="38" fill="#8B6405"/><rect width="20.2" height="6.5" x="154.2" y="57.4" fill="#8B6405"/><rect width="20" height="6.5" x="35.5" y="57.4" fill="#8B6405"/><rect width="19.5" height="6.9" x="75.1" y="163.3" fill="#8B6405"/><rect width="21.4" height="7.8" x="114.6" y="163.3" fill="#8B6405"/><rect width="99.2" height="33.7" x="55.5" y="70.4" fill="#F6D68B"/><rect width="85.6" height="6.8" x="62.3" y="103.5" fill="#F6D68B"/><rect width="72.7" height="8" x="69.1" y="110.3" fill="#F6D68B"/><rect width="13" height="13.8" x="141.7" y="143.9" fill="#F6D68B"/><rect width="14" height="13.3" x="55.3" y="143.9" fill="#F6D68B"/><rect width="7.2" height="13.6" x="68.6" y="130.3" fill="#FBE504"/><rect width="6.3" height="6.5" x="62.3" y="137.4" fill="#FBE504"/><rect width="6.3" height="6.9" x="81.9" y="123.3" fill="#FBE504"/><rect width="6" height="7.6" x="122.4" y="123.3" fill="#FBE504"/><rect width="6.8" height="13.6" x="135" y="130.3" fill="#FBE504"/><rect width="6.2" height="7.3" x="141.7" y="137.1" fill="#FBE504"/><rect width="7.1" height="13.6" x="114.6" y="130.3" fill="#FBE504"/><rect width="6.3" height="13" x="88.2" y="130.3" fill="#FBE504"/><rect width="20.1" height="26.3" x="94.5" y="137.1" fill="#FBE504"/><rect width="20.1" height="7.8" x="94.5" y="163.3" fill="#E5CF23"/><rect width="34.2" height="7.6" x="88.2" y="123.3" fill="#FA0517"/><rect width="20.1" height="6.8" x="94.5" y="130.3" fill="#FA0517"/><rect width="6.8" height="6.9" x="75.1" y="123.3" fill="#F7F3F4"/><rect width="6.3" height="13" x="81.9" y="130.3" fill="#F7F3F4"/><rect width="7" height="6.6" x="74.9" y="143.9" fill="#F7F3F4"/><rect width="7.1" height="7.1" x="74.9" y="156.2" fill="#F7F3F4"/><rect width="12.7" height="6.5" x="81.9" y="150.5" fill="#F7F3F4"/><rect width="6.3" height="7.3" x="88.2" y="143.2" fill="#F7F3F4"/><rect width="6.6" height="20.5" x="128.4" y="123.3" fill="#F7F3F4"/><rect width="6.6" height="6.6" x="121.7" y="143.9" fill="#F7F3F4"/><rect width="6.8" height="7.4" x="128.2" y="149.7" fill="#F7F3F4"/><rect width="7.4" height="6.8" x="121.7" y="156.2" fill="#F7F3F4"/><rect width="13.1" height="26.3" x="75.1" y="170.2" fill="#91BBD4"/><rect width="6.3" height="13.2" x="88.2" y="170.2" fill="#91BBD4"/><rect width="20.1" height="4.9" x="94.5" y="171.1" fill="#91BBD4"/><rect width="6.8" height="12.3" x="114.6" y="171.1" fill="#91BBD4"/><rect width="14" height="26.5" x="121" y="170.2" fill="#91BBD4"/><rect width="12.1" height="12.4" x="75.8" y="78" fill="#040404"/><rect width="13.2" height="12.4" x="121.7" y="78" fill="#040404"/><rect width="99.2" height="6.5" x="55.5" y="31.5" fill="#040404"/><rect width="6.2" height="19.4" x="49.3" y="38" fill="#040404"/><rect width="15.5" height="6.5" x="35.5" y="50.9" fill="#040404"/><rect width="6.2" height="19.4" x="154.7" y="38" fill="#040404"/><rect width="13.5" height="5.4" x="160.9" y="52.1" fill="#040404"/><rect width="7" height="13" x="28.5" y="57.4" fill="#040404"/><rect width="7" height="13" x="174.4" y="57.4" fill="#040404"/><rect width="144.5" height="6.5" x="35.5" y="63.9" fill="#040404"/><rect width="6.6" height="34.9" x="49.3" y="69.3" fill="#040404"/><rect width="6.2" height="33.7" x="154.7" y="70.4" fill="#040404"/><rect width="6.3" height="6.3" x="56" y="104.1" fill="#040404"/><rect width="7" height="7.6" x="62.3" y="110.4" fill="#040404"/><rect width="6.8" height="6.3" x="147.9" y="104.1" fill="#040404"/><rect width="6.2" height="7.6" x="141.7" y="110.4" fill="#040404"/><rect width="72.4" height="5.4" x="69.3" y="118" fill="#040404"/><rect width="5.7" height="7.6" x="69.3" y="123.3" fill="#040404"/><rect width="6.8" height="8.2" x="135" y="122" fill="#040404"/><rect width="6.2" height="7" x="141.7" y="130.3" fill="#040404"/><rect width="6.8" height="6.6" x="147.9" y="137.2" fill="#040404"/><rect width="7.1" height="13.3" x="154.7" y="143.9" fill="#040404"/><rect width="13.7" height="6.2" x="141" y="157.2" fill="#040404"/><rect width="6.6" height="13" x="121.7" y="130.9" fill="#040404"/><rect width="6.3" height="7" x="62.3" y="130.3" fill="#040404"/><rect width="6.3" height="6.5" x="56" y="137.4" fill="#040404"/><rect width="6" height="13.3" x="49.3" y="143.9" fill="#040404"/><rect width="14" height="6.2" x="55.3" y="157.2" fill="#040404"/><rect width="6.1" height="13.6" x="75.8" y="130.3" fill="#040404"/><rect width="7" height="6.6" x="81.9" y="143.9" fill="#040404"/><rect width="6.8" height="5.7" x="75.1" y="150.5" fill="#040404"/><rect width="12.7" height="6.2" x="81.9" y="157.2" fill="#040404"/><rect width="7.1" height="19.5" x="114.6" y="143.9" fill="#040404"/><rect width="6.6" height="6.6" x="121.7" y="150.5" fill="#040404"/><rect width="7.6" height="6.2" x="128.4" y="157.2" fill="#040404"/><rect width="6.6" height="5.9" x="128.4" y="143.9" fill="#040404"/><rect width="6.8" height="52.7" x="135" y="143.9" fill="#040404"/><rect width="6.5" height="52.7" x="68.6" y="143.9" fill="#040404"/><rect width="13.8" height="7.6" x="75.1" y="196.6" fill="#040404"/><rect width="13.6" height="7.4" x="121.4" y="196.7" fill="#040404"/><rect width="6.8" height="13.3" x="114.6" y="183.4" fill="#040404"/><rect width="20.1" height="7.4" x="94.5" y="176" fill="#040404"/><rect width="6.3" height="13.1" x="88.2" y="183.4" fill="#040404"/></g></g></svg>