<svg xmlns="http://www.w3.org/2000/svg" xmlns:xlink="http://www.w3.org/1999/xlink" x="0" y="0" enable-background="new 0 0 647.1 607.4" version="1.1" viewBox="0 0 647.1 607.4" xml:space="preserve"><g id="Réteg_5"><g><rect width="488.2" height="396.8" x="81.8" y="101.1" fill="#A07D56"/><rect width="59.2" height="91.4" x="51.7" y="406.4" fill="#885919"/><rect width="32.2" height="27" x="110.9" y="470.8" fill="#885919"/><rect width="488.2" height="67.5" x="81.8" y="497.8" fill="#885919"/><rect width="28.3" height="31.4" x="511.6" y="466.5" fill="#885919"/><rect width="63.4" height="91.4" x="539.9" y="406.4" fill="#885919"/><rect width="29.6" height="181.8" x="51.7" y="224.7" fill="#D07F24"/><rect width="29.6" height="151.6" x="81.3" y="254.8" fill="#D07F24"/><rect width="62.2" height="30.1" x="203.4" y="346.2" fill="#D07F24"/><rect width="61.3" height="30.1" x="173.2" y="376.3" fill="#D07F24"/><rect width="60.8" height="31.2" x="143.1" y="406.4" fill="#D07F24"/><rect width="31.7" height="33.1" x="143.1" y="437.6" fill="#D07F24"/><rect width="61.3" height="35.3" x="387.2" y="346.2" fill="#D07F24"/><rect width="60.8" height="32.9" x="417.8" y="376.3" fill="#D07F24"/><rect width="63.1" height="31.2" x="448.4" y="406.4" fill="#D07F24"/><rect width="33" height="35.6" x="478.6" y="437.6" fill="#D07F24"/><rect width="0" height="4.2" x="495.1" y="466.5" fill="#D07F24"/><rect width="31.7" height="181.8" x="571.5" y="224.7" fill="#D07F24"/><rect width="31.7" height="151.6" x="539.9" y="254.8" fill="#D07F24"/><rect width="29.6" height="123.6" x="51.7" y="101.1" fill="#F7B24B"/><rect width="29.1" height="185.9" x="81.8" y="68.9" fill="#F7B24B"/><rect width="33.2" height="123.6" x="570" y="101.1" fill="#F7B24B"/><rect width="31.7" height="185.9" x="539.9" y="68.9" fill="#F7B24B"/><rect width="429" height="63.4" x="110.9" y="68.9" fill="#F7B24B"/><rect width="60.8" height="34.1" x="143.1" y="161.3" fill="#F7B24B"/><rect width="59.9" height="31.7" x="174.8" y="193" fill="#F7B24B"/><rect width="60.9" height="30.1" x="204.8" y="224.7" fill="#F7B24B"/><rect width="62.6" height="31.2" x="235.2" y="254.8" fill="#F7B24B"/><rect width="61.3" height="31.7" x="297.8" y="314.5" fill="#F7B24B"/><rect width="120.6" height="32.9" x="266.5" y="281.6" fill="#F7B24B"/><rect width="58.7" height="35.7" x="359.1" y="247.1" fill="#F7B24B"/><rect width="61.3" height="29.1" x="387.2" y="224.7" fill="#F7B24B"/><rect width="62.2" height="33.2" x="417.8" y="191.4" fill="#F7B24B"/><rect width="63.1" height="30.8" x="448.4" y="161.3" fill="#F7B24B"/><rect width="32.2" height="92.4" x="110.9" y="132.2" fill="#603D16"/><rect width="91.4" height="29.1" x="143.1" y="132.2" fill="#603D16"/><rect width="61.8" height="34.3" x="203.9" y="161.3" fill="#603D16"/><rect width="61.3" height="28" x="297.8" y="254.8" fill="#603D16"/><rect width="121.5" height="30.1" x="265.6" y="224.7" fill="#603D16"/><rect width="183.1" height="33.2" x="234.7" y="191.4" fill="#603D16"/><rect width="61.3" height="30.1" x="387.2" y="161.3" fill="#603D16"/><rect width="122" height="29.1" x="417.8" y="132.2" fill="#603D16"/><rect width="28.3" height="63.4" x="511.6" y="161.3" fill="#603D16"/><rect width="31.6" height="62.7" x="480" y="192.1" fill="#603D16"/><rect width="31.6" height="58.2" x="448.4" y="224.7" fill="#603D16"/><rect width="30.6" height="92.4" x="417.8" y="253.7" fill="#603D16"/><rect width="30.6" height="63.4" x="387.2" y="282.8" fill="#603D16"/><rect width="28" height="91.9" x="359.1" y="314.5" fill="#603D16"/><rect width="30.1" height="66" x="448.4" y="315.5" fill="#603D16"/><rect width="33" height="60.2" x="478.6" y="346.2" fill="#603D16"/><rect width="28.3" height="90.2" x="511.6" y="376.3" fill="#603D16"/><rect width="63.1" height="28.5" x="448.4" y="469.3" fill="#603D16"/><rect width="30.1" height="33.2" x="448.4" y="437.6" fill="#603D16"/><rect width="30.6" height="28.4" x="417.8" y="409.2" fill="#603D16"/><rect width="30.6" height="56.1" x="387.2" y="381.5" fill="#603D16"/><rect width="61.3" height="60.2" x="297.8" y="346.2" fill="#603D16"/><rect width="32.2" height="91.9" x="265.6" y="314.5" fill="#603D16"/><rect width="31.1" height="61.3" x="234.5" y="376.3" fill="#603D16"/><rect width="30.7" height="31.2" x="203.9" y="406.4" fill="#603D16"/><rect width="29" height="60.2" x="174.8" y="437.6" fill="#603D16"/><rect width="31.7" height="27" x="143.1" y="470.8" fill="#603D16"/><rect width="32.2" height="94.5" x="110.9" y="376.3" fill="#603D16"/><rect width="30.1" height="60.2" x="143.1" y="346.2" fill="#603D16"/><rect width="34.7" height="61.8" x="171.3" y="314.5" fill="#603D16"/><rect width="30.7" height="91.7" x="203.9" y="253.7" fill="#603D16"/><rect width="30.9" height="62.6" x="234.7" y="282.8" fill="#603D16"/><rect width="29" height="61.9" x="174.8" y="220.9" fill="#603D16"/><rect width="31.7" height="60.4" x="143.1" y="191.4" fill="#603D16"/></g></g></svg>