<svg xmlns="http://www.w3.org/2000/svg" xmlns:xlink="http://www.w3.org/1999/xlink" x="0" y="0" enable-background="new 0 0 612 605.3" version="1.1" viewBox="0 0 612 605.3" xml:space="preserve"><g id="Réteg_2"><g><rect width="38.4" height="26.9" x="106.7" y="133.5" fill="#EDB01D"/><rect width="32.9" height="12.8" x="227.7" y="518.2" fill="#EDB01D"/><rect width="44.2" height="13.4" x="343.6" y="528.6" fill="#EDB01D"/><rect width="117.5" height="92" x="154.5" y="90.3" fill="#FF7516"/><rect width="21.8" height="154.5" x="271.4" y="132.7" fill="#FF7516"/><rect width="21.9" height="12.8" x="337.5" y="243.6" fill="#FF7516"/><rect width="23.2" height="29" x="303.3" y="217.9" fill="#FF7516"/><rect width="15.8" height="14.9" x="322.9" y="232" fill="#FF7516"/><rect width="23.7" height="47.8" x="294" y="196.7" fill="#FF7516"/><rect width="38.3" height="47.7" x="249.9" y="222.7" fill="#FF7516"/><rect width="65.8" height="82.8" x="184.1" y="160.9" fill="#FF7516"/><rect width="62" height="58.3" x="174.3" y="128" fill="#FF7516"/><rect width="73.6" height="73.6" x="178.8" y="213.2" fill="#FF7516"/><rect width="48.5" height="70.4" x="231.5" y="162.5" fill="#FF7516"/><rect width="20.7" height="60.1" x="282.6" y="227.1" fill="#FF7516"/><rect width="11.2" height="12" x="288.2" y="286.7" fill="#FF7516"/><rect width="17.7" height="50.6" x="288.2" y="162.5" fill="#FF7516"/><rect width="34.9" height="33.6" x="139.4" y="78.3" fill="#EF0000"/><rect width="28.5" height="22" x="172" y="56.4" fill="#EF0000"/><rect width="12" height="10.8" x="183.4" y="45.6" fill="#EF0000"/><rect width="17.9" height="16" x="195.4" y="56.4" fill="#EF0000"/><rect width="11.6" height="38.7" x="238.5" y="42.6" fill="#EF0000"/><rect width="32.3" height="22" x="228.1" y="56.4" fill="#FFA96E"/><rect width="142.2" height="98.7" x="172.7" y="320.7" fill="#FFA96E"/><rect width="99" height="29.7" x="206.6" y="301.7" fill="#FFA96E"/><rect width="47.5" height="33.1" x="312" y="254.4" fill="#FFA96E"/><rect width="13" height="13.3" x="304.6" y="297.9" fill="#FFA96E"/><rect width="11.7" height="11.2" x="314.9" y="286.7" fill="#FFA96E"/><rect width="17" height="22.4" x="370.8" y="265.2" fill="#FFA96E"/><rect width="56.7" height="13.5" x="358.3" y="275.5" fill="#FFA96E"/><rect width="11.2" height="16.2" x="525.2" y="232.4" fill="#FFA96E"/><rect width="13.1" height="22.8" x="513.4" y="244" fill="#FFA96E"/><rect width="15.9" height="25.4" x="501.5" y="254.8" fill="#FFA96E"/><rect width="44" height="78.9" x="492.3" y="265.2" fill="#FFA96E"/><rect width="74.7" height="21.8" x="415" y="287.6" fill="#FFA96E"/><rect width="44.3" height="61.9" x="447.7" y="308.4" fill="#FFA96E"/><rect width="41.3" height="52.1" x="449.8" y="357.6" fill="#FFA96E"/><rect width="33.7" height="56.8" x="435.7" y="385.7" fill="#FFA96E"/><rect width="33.8" height="66.3" x="415" y="397.3" fill="#FFA96E"/><rect width="75.4" height="86.6" x="360.3" y="387.7" fill="#FFA96E"/><rect width="31.7" height="25.5" x="369.4" y="472.3" fill="#FFA96E"/><rect width="10.4" height="12.7" x="396.9" y="472.3" fill="#FFA96E"/><rect width="83.6" height="120.7" x="294" y="381.2" fill="#FFA96E"/><rect width="120.2" height="96.4" x="194.8" y="356.5" fill="#FFA96E"/><rect width="69.6" height="38.2" x="238.5" y="447.3" fill="#FFA96E"/><rect width="13.4" height="46.4" x="308" y="339.4" fill="#FFA96E"/><rect width="26.7" height="38.6" x="470.9" y="275.5" fill="#FFA96E"/><rect width="25.1" height="18.5" x="489.7" y="344" fill="#FFA96E"/><rect width="18.5" height="13.7" x="489.7" y="360.1" fill="#FFA96E"/><rect width="8.3" height="22.1" x="464.9" y="414.1" fill="#FFA96E"/><rect width="14.7" height="44.7" x="484.2" y="310.3" fill="#FFA96E"/><rect width="15.3" height="11.4" x="443.5" y="441.5" fill="#FFA96E"/><rect width="9.1" height="7.5" x="373.1" y="383.6" fill="#FFA96E"/><rect width="110.7" height="82.7" x="326.6" y="297.9" fill="#A44A10"/><rect width="12.8" height="14.4" x="404.2" y="375.9" fill="#A44A10"/><rect width="12.2" height="10.8" x="436.5" y="331.5" fill="#A44A10"/><rect width="15.6" height="44.3" x="256.5" y="67.6" fill="#BE0001"/><rect width="31.9" height="24" x="228.1" y="77.1" fill="#BE0001"/><rect width="33.1" height="9.5" x="195" y="67.6" fill="#BE0001"/><rect width="22" height="22.8" x="173" y="78.3" fill="#BE0001"/><rect width="11.6" height="11.4" x="161.4" y="100.5" fill="#BE0001"/><rect width="35" height="10.8" x="128.7" y="111.9" fill="#BE0001"/><rect width="10.8" height="10.8" x="217.3" y="90.3" fill="#DE4F00"/><rect width="10.3" height="10.2" x="195.4" y="90.3" fill="#DE4F00"/><rect width="11.6" height="10.7" x="205.7" y="100.5" fill="#DE4F00"/><rect width="10.8" height="10.1" x="184" y="101.1" fill="#DE4F00"/><rect width="10.4" height="21.5" x="173" y="111.9" fill="#DE4F00"/><rect width="11.6" height="10.8" x="205.7" y="122.7" fill="#DE4F00"/><rect width="11" height="10.8" x="205.7" y="144.2" fill="#DE4F00"/><rect width="11.6" height="10.7" x="195" y="177.4" fill="#DE4F00"/><rect width="11.4" height="11.5" x="183.4" y="144.2" fill="#DE4F00"/><rect width="12.9" height="66.7" x="161.4" y="133.4" fill="#DE4F00"/><rect width="11.1" height="99.1" x="173" y="155.7" fill="#DE4F00"/><rect width="11.6" height="11.3" x="183.4" y="199.4" fill="#DE4F00"/><rect width="11.6" height="10.7" x="195" y="177.4" fill="#DE4F00"/><rect width="11.8" height="11.3" x="205.7" y="199.4" fill="#DE4F00"/><rect width="11" height="11" x="194.8" y="221.2" fill="#DE4F00"/><rect width="11.8" height="11.5" x="205.7" y="232.2" fill="#DE4F00"/><rect width="11.3" height="11.1" x="216.9" y="243.7" fill="#DE4F00"/><rect width="13.7" height="54.3" x="181.2" y="232.9" fill="#DE4F00"/><rect width="14.9" height="24.9" x="170.2" y="274.2" fill="#DE4F00"/><rect width="9.9" height="33.9" x="205.7" y="276.4" fill="#DE4F00"/><rect width="11" height="13.5" x="194.8" y="265.2" fill="#DE4F00"/><rect width="12.4" height="10.7" x="215.7" y="276.4" fill="#DE4F00"/><rect width="10.4" height="20.7" x="228.1" y="254.8" fill="#DE4F00"/><rect width="11.6" height="21.5" x="238.5" y="276.4" fill="#DE4F00"/><rect width="10.9" height="76.4" x="250.1" y="232.9" fill="#DE4F00"/><rect width="11.6" height="11.6" x="238.5" y="221.3" fill="#DE4F00"/><rect width="11.1" height="11.2" x="260.9" y="243.6" fill="#DE4F00"/><rect width="11.2" height="20.7" x="272" y="254.8" fill="#DE4F00"/><rect width="9.9" height="10.7" x="283.2" y="276.4" fill="#DE4F00"/><rect width="12.7" height="53.4" x="292.9" y="244.6" fill="#DE4F00"/><rect width="33.7" height="10.3" x="337.1" y="254.8" fill="#DE4F00"/><rect width="22.8" height="11.2" x="315.9" y="243.6" fill="#DE4F00"/><rect width="10.8" height="10.6" x="283.2" y="210.7" fill="#DE4F00"/><rect width="12.4" height="11.6" x="293.1" y="221.3" fill="#DE4F00"/><rect width="10.4" height="11.6" x="305.6" y="232" fill="#F57D27"/><rect width="22.7" height="42.3" x="161.4" y="310.3" fill="#F57D27"/><rect width="11.4" height="33.6" x="183.4" y="297.9" fill="#F57D27"/><rect width="11.1" height="31.9" x="194.8" y="310.3" fill="#F57D27"/><rect width="11.1" height="11.1" x="205.7" y="320.4" fill="#F57D27"/><rect width="10.8" height="10.4" x="217.3" y="310.3" fill="#F57D27"/><rect width="10.4" height="12.4" x="228.1" y="297.9" fill="#F57D27"/><rect width="11.6" height="10.4" x="238.5" y="310.3" fill="#F57D27"/><rect width="10.9" height="10.8" x="250.1" y="320.7" fill="#F57D27"/><rect width="11.1" height="13.9" x="260.9" y="306.5" fill="#F57D27"/><rect width="21.1" height="23.2" x="272" y="287.1" fill="#F57D27"/><rect width="9.3" height="12.5" x="294" y="307.9" fill="#F57D27"/><rect width="11" height="12.8" x="239.1" y="342.2" fill="#F57D27"/><rect width="10.9" height="10.8" x="216.9" y="331.5" fill="#F57D27"/><rect width="11.2" height="23.1" x="205.7" y="352.6" fill="#F57D27"/><rect width="10.7" height="10.4" x="184.1" y="342.2" fill="#F57D27"/><rect width="10.7" height="43.2" x="173.4" y="352.6" fill="#F57D27"/><rect width="10.9" height="11.7" x="184.1" y="364" fill="#F57D27"/><rect width="11.5" height="11" x="205.8" y="386.4" fill="#F57D27"/><rect width="11.4" height="33" x="183.4" y="386.4" fill="#F57D27"/><rect width="11" height="44.2" x="194.8" y="397.3" fill="#F57D27"/><rect width="11.2" height="33" x="205.7" y="408.5" fill="#F57D27"/><rect width="12" height="44.2" x="215.7" y="419.4" fill="#F57D27"/><rect width="22.4" height="32.7" x="227.7" y="430.9" fill="#F57D27"/><rect width="11" height="12.1" x="228.1" y="374.2" fill="#F57D27"/><rect width="11.1" height="10.7" x="260.9" y="375.7" fill="#F57D27"/><rect width="11.6" height="11.2" x="238.5" y="408.5" fill="#F57D27"/><rect width="11.4" height="11.2" x="260.7" y="408.5" fill="#F57D27"/><rect width="11.2" height="11.5" x="282.8" y="419.4" fill="#F57D27"/><rect width="11.4" height="11.1" x="260.7" y="430.5" fill="#F57D27"/><rect width="11.8" height="10.4" x="294" y="442.5" fill="#F57D27"/><rect width="11.1" height="11.6" x="260.9" y="452" fill="#F57D27"/><rect width="10.1" height="10.8" x="305.8" y="463.6" fill="#F57D27"/><rect width="10.7" height="10.8" x="326.5" y="463.6" fill="#F57D27"/><rect width="43.5" height="21.5" x="250.1" y="463.6" fill="#F57D27"/><rect width="76.5" height="22.2" x="294" y="474.4" fill="#F57D27"/><rect width="11.2" height="21.5" x="525.2" y="243.6" fill="#F57D27"/><rect width="10.4" height="12" x="514.8" y="265.2" fill="#F57D27"/><rect width="9.9" height="10.3" x="503.2" y="276.4" fill="#F57D27"/><rect width="10.4" height="10.8" x="536.3" y="287.1" fill="#F57D27"/><rect width="12.9" height="22.8" x="525.2" y="297.9" fill="#F57D27"/><rect width="12" height="11.4" x="513.1" y="309.3" fill="#F57D27"/><rect width="9.9" height="10.4" x="514.8" y="342.2" fill="#F57D27"/><rect width="11.6" height="9.9" x="503.2" y="352.6" fill="#F57D27"/><rect width="21.8" height="9.7" x="481.4" y="364" fill="#F57D27"/><rect width="10.6" height="36.4" x="481.4" y="372.1" fill="#F57D27"/><rect width="10.6" height="43.5" x="470.9" y="385.7" fill="#F57D27"/><rect width="12" height="10.8" x="458.9" y="408.5" fill="#F57D27"/><rect width="11.2" height="11.5" x="447.7" y="419.4" fill="#F57D27"/><rect width="12" height="12.3" x="458.9" y="429.2" fill="#FFB98B"/><rect width="10.7" height="11.1" x="326.6" y="419.4" fill="#FFB98B"/><rect width="10.4" height="10.8" x="349.9" y="408.5" fill="#FFB98B"/><rect width="12.1" height="11.5" x="393.4" y="419.4" fill="#FFB98B"/><rect width="11.6" height="32.3" x="370.6" y="419.7" fill="#FFB98B"/><rect width="22.2" height="10.7" x="348.4" y="430.9" fill="#FFB98B"/><rect width="10.3" height="11" x="360.3" y="441.6" fill="#FFB98B"/><rect width="11.2" height="11.6" x="382.2" y="452" fill="#FFB98B"/><rect width="12.8" height="11.2" x="360.3" y="463.6" fill="#FFB98B"/><rect width="11" height="31.9" x="315.9" y="310.3" fill="#8A2D06"/><rect width="12.2" height="54.3" x="326.5" y="331.5" fill="#8A2D06"/><rect width="20.7" height="32.3" x="338.7" y="365" fill="#8A2D06"/><rect width="22.8" height="10.4" x="359.4" y="365" fill="#8A2D06"/><rect width="22" height="11" x="382.2" y="375.4" fill="#8A2D06"/><rect width="21.5" height="12.6" x="393.4" y="386.4" fill="#8A2D06"/><rect width="22.4" height="10.7" x="415" y="375.7" fill="#8A2D06"/><rect width="32.7" height="12.4" x="415" y="352.6" fill="#8A2D06"/><rect width="11.2" height="10.7" x="415" y="365" fill="#8A2D06"/><rect width="11" height="43.1" x="139.4" y="133.4" fill="#E09A06"/><rect width="22.1" height="11.8" x="117.3" y="155" fill="#E09A06"/><rect width="13.3" height="11.6" x="236.7" y="539.9" fill="#DD9800"/><rect width="24.3" height="32.4" x="249.2" y="529.1" fill="#DD9800"/><rect width="22.2" height="36.2" x="260.7" y="494.8" fill="#DD9800"/><rect width="12.6" height="11.2" x="281" y="528.6" fill="#DD9800"/><rect width="12.7" height="11.2" x="359.5" y="528.6" fill="#DD9800"/><rect width="13.7" height="14.1" x="359.4" y="549.8" fill="#DD9800"/><rect width="21.3" height="31.9" x="372.2" y="539.9" fill="#DD9800"/><rect width="10.8" height="10.8" x="404.2" y="539.9" fill="#DD9800"/><rect width="22" height="37.7" x="382.2" y="507.1" fill="#DD9800"/><rect width="11.6" height="11.2" x="183.4" y="34.4" fill="#170E0B"/><rect width="10.4" height="10.8" x="173" y="45.6" fill="#170E0B"/><rect width="11.2" height="10.8" x="195" y="45.6" fill="#170E0B"/><rect width="22" height="11.2" x="206.1" y="56.4" fill="#170E0B"/><rect width="11.2" height="10.8" x="228.1" y="45.6" fill="#170E0B"/><rect width="10.4" height="11.2" x="239.3" y="34.4" fill="#170E0B"/><rect width="10.8" height="10.8" x="249.6" y="45.6" fill="#170E0B"/><rect width="11.6" height="11.2" x="260.4" y="56.4" fill="#170E0B"/><rect width="11.6" height="34" x="161.4" y="56.4" fill="#170E0B"/><rect width="22" height="10.8" x="139.4" y="67.6" fill="#170E0B"/><rect width="10.8" height="33.6" x="128.7" y="78.3" fill="#170E0B"/><rect width="11" height="10.8" x="139.4" y="101.1" fill="#170E0B"/><rect width="11.3" height="32.3" x="117.3" y="101.1" fill="#170E0B"/><rect width="33.1" height="13.3" x="195" y="77.1" fill="#170E0B"/><rect width="11.6" height="10.8" x="183.4" y="90.3" fill="#170E0B"/><rect width="11.2" height="10.8" x="228.1" y="90.3" fill="#170E0B"/><rect width="21.1" height="10.8" x="239.3" y="101.1" fill="#170E0B"/><rect width="10.4" height="10.8" x="173" y="101.1" fill="#170E0B"/><rect width="11.6" height="21.5" x="161.4" y="111.9" fill="#170E0B"/><rect width="32.8" height="10.8" x="128.7" y="122.7" fill="#170E0B"/><rect width="11" height="68.8" x="150.4" y="131.4" fill="#170E0B"/><rect width="11.5" height="10.8" x="105.9" y="133.4" fill="#170E0B"/><rect width="10.4" height="10.8" x="95.5" y="144.2" fill="#170E0B"/><rect width="11.5" height="10.8" x="105.9" y="155" fill="#170E0B"/><rect width="22.1" height="10.8" x="117.3" y="165.8" fill="#170E0B"/><rect width="11" height="11.6" x="139.4" y="176.5" fill="#170E0B"/><rect width="11.6" height="10.8" x="183.4" y="122.7" fill="#170E0B"/><rect width="11.2" height="65.9" x="272" y="67.6" fill="#170E0B"/><rect width="11.6" height="10.8" x="260.4" y="111.9" fill="#170E0B"/><rect width="9.9" height="21.5" x="283.2" y="133.4" fill="#170E0B"/><rect width="12.4" height="10.8" x="293.1" y="155" fill="#170E0B"/><rect width="12.8" height="34.4" x="305.6" y="165.8" fill="#170E0B"/><rect width="10.8" height="21.1" x="315.9" y="200.1" fill="#170E0B"/><rect width="11.6" height="54.7" x="161.4" y="200.1" fill="#170E0B"/><rect width="10.4" height="20.7" x="173" y="254.8" fill="#170E0B"/><rect width="12" height="10.8" x="326.7" y="221.3" fill="#170E0B"/><rect width="22.1" height="11.6" x="337.3" y="232" fill="#170E0B"/><rect width="11.6" height="11.2" x="359.4" y="243.6" fill="#170E0B"/><rect width="11.2" height="10.4" x="371" y="254.8" fill="#170E0B"/><rect width="33.7" height="12" x="337.3" y="265.2" fill="#170E0B"/><rect width="21.4" height="10.4" x="315.9" y="254.8" fill="#170E0B"/><rect width="10.4" height="54.3" x="305.6" y="243.6" fill="#170E0B"/><rect width="12.4" height="12.4" x="293.1" y="297.9" fill="#170E0B"/><rect width="9.9" height="10.8" x="283.2" y="287.1" fill="#170E0B"/><rect width="11.2" height="11.6" x="272" y="275.5" fill="#170E0B"/><rect width="12" height="53" x="260" y="254.8" fill="#170E0B"/><rect width="11.2" height="12" x="250.1" y="308.7" fill="#170E0B"/><rect width="11.6" height="12.4" x="238.5" y="297.9" fill="#170E0B"/><rect width="10.4" height="22.4" x="228.1" y="275.5" fill="#170E0B"/><rect width="12.4" height="23.2" x="215.7" y="287.1" fill="#170E0B"/><rect width="11.6" height="10.4" x="205.7" y="310.3" fill="#170E0B"/><rect width="10.8" height="33.1" x="195" y="277.2" fill="#170E0B"/><rect width="11.6" height="11.6" x="183.4" y="287.1" fill="#170E0B"/><rect width="11" height="42.3" x="150.4" y="310.3" fill="#170E0B"/><rect width="32.7" height="12" x="382.2" y="265.2" fill="#170E0B"/><rect width="55.9" height="9.9" x="415" y="277.2" fill="#170E0B"/><rect width="21.1" height="10.4" x="470.9" y="265.2" fill="#170E0B"/><rect width="11.2" height="10.4" x="492" y="254.8" fill="#170E0B"/><rect width="13.3" height="11.2" x="501.5" y="243.6" fill="#170E0B"/><rect width="10.4" height="11.6" x="514.8" y="232" fill="#170E0B"/><rect width="11.2" height="10.8" x="525.2" y="221.3" fill="#170E0B"/><rect width="12" height="33.1" x="536.3" y="232" fill="#170E0B"/><rect width="11.2" height="13.4" x="525.2" y="265.2" fill="#170E0B"/><rect width="33.6" height="9.5" x="513.1" y="277.2" fill="#170E0B"/><rect width="11.6" height="12" x="546.7" y="286.7" fill="#170E0B"/><rect width="10.4" height="22.8" x="536.3" y="297.9" fill="#170E0B"/><rect width="23.2" height="10.8" x="513.1" y="320.7" fill="#170E0B"/><rect width="12" height="10.8" x="536.3" y="331.5" fill="#170E0B"/><rect width="11.2" height="12.8" x="525.2" y="342.2" fill="#170E0B"/><rect width="9.9" height="12.4" x="514.8" y="352.6" fill="#170E0B"/><rect width="11.6" height="12.8" x="503.2" y="362.5" fill="#170E0B"/><rect width="11.2" height="34.8" x="492" y="373.7" fill="#170E0B"/><rect width="10.6" height="22.4" x="481.4" y="408.5" fill="#170E0B"/><rect width="12.1" height="13.3" x="469.3" y="429.2" fill="#170E0B"/><rect width="88.3" height="10.8" x="326.6" y="287.1" fill="#170E0B"/><rect width="10.7" height="13.7" x="315.9" y="297.9" fill="#170E0B"/><rect width="10.4" height="31.9" x="305.6" y="310.3" fill="#170E0B"/><rect width="10.7" height="43.5" x="315.9" y="342.2" fill="#170E0B"/><rect width="12" height="11.6" x="326.6" y="385.7" fill="#170E0B"/><rect width="22.1" height="11.2" x="337.3" y="397.3" fill="#170E0B"/><rect width="13.7" height="22" x="359.4" y="375.4" fill="#170E0B"/><rect width="9.1" height="10.4" x="373.1" y="375.4" fill="#170E0B"/><rect width="11.2" height="11.6" x="382.2" y="385.7" fill="#170E0B"/><rect width="21.5" height="11.2" x="393.4" y="397.3" fill="#170E0B"/><rect width="22.4" height="11" x="415" y="386.4" fill="#170E0B"/><rect width="12.4" height="21.3" x="437.3" y="365" fill="#170E0B"/><rect width="11.2" height="11.9" x="426.1" y="364" fill="#170E0B"/><rect width="11.2" height="9.9" x="447.7" y="355.1" fill="#170E0B"/><rect width="10.4" height="12.8" x="437.3" y="342.2" fill="#170E0B"/><rect width="11.2" height="10.8" x="447.7" y="331.5" fill="#170E0B"/><rect width="10.4" height="22.2" x="437.3" y="309.3" fill="#170E0B"/><rect width="22.4" height="11.4" x="415" y="297.9" fill="#170E0B"/><rect width="12" height="11.4" x="458.9" y="441.6" fill="#170E0B"/><rect width="12.5" height="11.6" x="447.7" y="452" fill="#170E0B"/><rect width="14.1" height="11.2" x="435.7" y="463.6" fill="#170E0B"/><rect width="33.1" height="12.8" x="404.2" y="472.3" fill="#170E0B"/><rect width="10.8" height="43.9" x="393.4" y="485.2" fill="#170E0B"/><rect width="10.8" height="13.3" x="404.2" y="526.6" fill="#170E0B"/><rect width="12.8" height="10.8" x="415" y="539.9" fill="#170E0B"/><rect width="10.8" height="12" x="404.2" y="550.6" fill="#170E0B"/><rect width="10.8" height="33.4" x="393.4" y="539.9" fill="#170E0B"/><rect width="11.2" height="12.4" x="382.2" y="571.8" fill="#170E0B"/><rect width="10.1" height="23.3" x="372.2" y="549.8" fill="#170E0B"/><rect width="23.8" height="10" x="348.4" y="539.9" fill="#170E0B"/><rect width="11.1" height="23.6" x="348.4" y="549.8" fill="#170E0B"/><rect width="12.7" height="11.9" x="359.4" y="561.6" fill="#170E0B"/><rect width="12.6" height="10.8" x="337.3" y="529.1" fill="#170E0B"/><rect width="33.9" height="10.9" x="348.4" y="518.2" fill="#170E0B"/><rect width="11.2" height="10.5" x="382.2" y="496.6" fill="#170E0B"/><rect width="11.6" height="12.2" x="370.6" y="505.9" fill="#170E0B"/><rect width="10.7" height="10.5" x="326.5" y="441.6" fill="#170E0B"/><rect width="12.6" height="13.4" x="337.3" y="450.3" fill="#170E0B"/><rect width="10.4" height="11.2" x="349.9" y="463.6" fill="#170E0B"/><rect width="10.3" height="10.4" x="360.3" y="474.8" fill="#170E0B"/><rect width="10.2" height="11.4" x="370.6" y="485.2" fill="#170E0B"/><rect width="88.6" height="10.5" x="293.6" y="496.6" fill="#170E0B"/><rect width="54.5" height="11.4" x="239.1" y="485.2" fill="#170E0B"/><rect width="10.8" height="21.6" x="272" y="496.6" fill="#170E0B"/><rect width="10.8" height="12.1" x="282.8" y="517" fill="#170E0B"/><rect width="12.2" height="12" x="293.6" y="527.8" fill="#170E0B"/><rect width="10.8" height="10.8" x="282.8" y="539.9" fill="#170E0B"/><rect width="10.8" height="32.5" x="272" y="529.1" fill="#170E0B"/><rect width="12.8" height="12" x="260.7" y="561.5" fill="#170E0B"/><rect width="11.5" height="25" x="249.2" y="539" fill="#170E0B"/><rect width="21.5" height="13.3" x="227.7" y="550.6" fill="#170E0B"/><rect width="21.5" height="9.9" x="227.7" y="529.1" fill="#170E0B"/><rect width="11.4" height="11.6" x="227.7" y="539" fill="#170E0B"/><rect width="10.8" height="10.9" x="216.9" y="518.2" fill="#170E0B"/><rect width="32.9" height="12.2" x="227.7" y="505.9" fill="#170E0B"/><rect width="11.3" height="9.3" x="249.4" y="496.6" fill="#170E0B"/><rect width="11.4" height="21.5" x="227.7" y="463.6" fill="#170E0B"/><rect width="12.2" height="10.8" x="216.9" y="463.6" fill="#170E0B"/><rect width="22.2" height="10.5" x="194.8" y="441.6" fill="#170E0B"/><rect width="11.1" height="15.7" x="205.8" y="447.9" fill="#170E0B"/><rect width="11.4" height="22.2" x="183.4" y="419.4" fill="#170E0B"/><rect width="11.4" height="22" x="172" y="397.3" fill="#170E0B"/><rect width="12.4" height="44.7" x="161.4" y="352.6" fill="#170E0B"/><rect width="12.5" height="37.9" x="161.4" y="272.5" fill="#170E0B"/><rect width="11.3" height="12.2" x="172" y="297.9" fill="#170E0B"/></g></g></svg>