<svg xmlns="http://www.w3.org/2000/svg" xmlns:xlink="http://www.w3.org/1999/xlink" x="0" y="0" enable-background="new 0 0 186.4 202.6" version="1.1" viewBox="0 0 186.4 202.6" xml:space="preserve"><g id="Réteg_2"><g><rect width="62.9" height="17.9" x="64.1" y="93.2" fill="#272727"/><rect width="62.9" height="9" x="64.1" y="111.1" fill="#434943"/><rect width="9.1" height="8.8" x="82" y="120.1" fill="#434943"/><rect width="63" height="18.4" x="64.1" y="128.9" fill="#434943"/><rect width="5.1" height="5.2" x="64.1" y="120.1" fill="#222522"/><rect width="13.8" height="4.4" x="68.2" y="124.5" fill="#222522"/><rect width="5" height="5.2" x="122.1" y="120.1" fill="#222522"/><rect width="32" height="4.7" x="91" y="124.2" fill="#222522"/><rect width="13.8" height="9.6" x="50.3" y="115.6" fill="#8E0000"/><rect width="13.5" height="9.1" x="127" y="115.6" fill="#8E0000"/><rect width="45" height="9.1" x="73.4" y="39.2" fill="#555"/><rect width="21.6" height="4.7" x="60.2" y="57.4" fill="#555"/><rect width="22.9" height="5.9" x="109.3" y="57.1" fill="#555"/><rect width="9.4" height="9.1" x="54.7" y="66.3" fill="#555"/><rect width="8.7" height="9.7" x="127.2" y="65.8" fill="#555"/><rect width="22.6" height="5.4" x="41.5" y="79.8" fill="#555"/><rect width="31.2" height="5.3" x="32.9" y="87.9" fill="#555"/><rect width="23.4" height="5.2" x="127.2" y="79.8" fill="#555"/><rect width="32" height="4.1" x="127.2" y="88.7" fill="#555"/><rect width="9.1" height="17.7" x="109.3" y="156.2" fill="#555"/><rect width="8.8" height="8.8" x="118.4" y="165.1" fill="#555"/><rect width="8.3" height="17.7" x="73.4" y="156.2" fill="#555"/><rect width="9.4" height="8.8" x="64.1" y="165.1" fill="#555"/><rect width="17.7" height="4.2" x="127.2" y="124.7" fill="#555"/><rect width="4.4" height="4.4" x="140.5" y="120.3" fill="#555"/><rect width="3.9" height="8.6" x="46.4" y="120.3" fill="#555"/><rect width="13.8" height="3.7" x="50.3" y="125.2" fill="#555"/><rect width="27" height="9.1" x="54.7" y="48.3" fill="#C4C400"/><rect width="5.5" height="10" x="81.7" y="52.1" fill="#C4C400"/><rect width="9" height="8.8" x="91.1" y="57.4" fill="#C4C400"/><rect width="3.9" height="5" x="87.2" y="57.2" fill="#C4C400"/><rect width="9.6" height="5" x="99.7" y="57.4" fill="#C4C400"/><rect width="5.7" height="5.3" x="103.6" y="52.1" fill="#C4C400"/><rect width="26.8" height="8.8" x="109" y="48.3" fill="#C4C400"/><rect width="27.6" height="3.8" x="81.7" y="48.3" fill="#272727"/><rect width="16.7" height="5.3" x="87.2" y="52.1" fill="#272727"/><rect width="5.5" height="9.4" x="54.6" y="57.4" fill="#272727"/><rect width="30.1" height="4.2" x="60.2" y="62.1" fill="#272727"/><rect width="4.7" height="5" x="81.7" y="66.3" fill="#272727"/><rect width="3.8" height="8.8" x="132.2" y="57.2" fill="#272727"/><rect width="31.5" height="3.6" x="100.7" y="62.4" fill="#272727"/><rect width="25.7" height="4.4" x="127.2" y="75.4" fill="#272727"/><rect width="26.4" height="3.8" x="127.3" y="84.9" fill="#272727"/><rect width="2.2" height="5.3" x="150.6" y="79.8" fill="#272727"/><rect width="8.5" height="3.7" x="153.6" y="85" fill="#272727"/><rect width="2.9" height="4.8" x="159.2" y="88" fill="#272727"/><rect width="3.3" height="9.3" x="140.9" y="66" fill="#272727"/><rect width="4" height="8.8" x="46.8" y="67.1" fill="#272727"/><rect width="25.9" height="4.5" x="38" y="75.3" fill="#272727"/><rect width="35.4" height="3" x="28.7" y="84.9" fill="#272727"/><rect width="4.2" height="5.4" x="28.7" y="87.9" fill="#272727"/><rect width=".8" height="4.2" x="90.3" y="62.1"/><rect width=".8" height="3.9" x="100" y="62.4"/><rect width="8.9" height="1" x="91.1" y="66.3" fill="#3D3D3D"/><rect width="4" height="9" x="50.7" y="66.3" fill="#3D3D3D"/><rect width="8.3" height="9" x="73.4" y="66.3" fill="#3D3D3D"/><rect width="5.5" height="4" x="81.7" y="71.3" fill="#3D3D3D"/><rect width="31.9" height="9.5" x="86.5" y="65.8" fill="#3D3D3D"/><rect width="9.4" height="9" x="64.1" y="66.3" fill="#3D3D3D"/><rect width="8.8" height="9.4" x="118.4" y="65.9" fill="#3D3D3D"/><rect width="5.1" height="9.5" x="135.8" y="66" fill="#3D3D3D"/><rect width="3.4" height="5.9" x="38" y="79.3" fill="#272727"/><rect width=".5" height="1.1" x="41" y="79.8" fill="#272727"/><rect width="9.3" height="17.8" x="64.1" y="75.4" fill="#FFFF86"/><rect width="9.2" height="17.9" x="91.1" y="75.3" fill="#FFFF86"/><rect width="9.2" height="18.3" x="117.9" y="75.3" fill="#FFFF86"/><rect width="9.4" height="1.2" x="63.9" y="93.2"/><rect width="17.7" height="17.9" x="73.4" y="75.3"/><rect width="9.2" height="1.2" x="91.1" y="93.2"/><rect width="17.6" height="17.9" x="100.3" y="75.3"/><rect width="9.1" height="1.2" x="117.9" y="93.2"/><rect width="1" height="16.6" x="63.9" y="94.4"/><rect width=".9" height="17.9" x="126.1" y="93.2"/><rect width="12.8" height="4.4" x="69.2" y="120.1" fill="#363936"/><rect width="4.1" height="3.7" x="64.1" y="125.2" fill="#363936"/><rect width="31" height="4.1" x="91" y="120.1" fill="#363936"/><rect width="4" height="3.7" x="123.1" y="125.2" fill="#363936"/><rect width="18" height="4.5" x="46.1" y="111.1" fill="#323232"/><rect width="4.2" height="4.7" x="46.1" y="115.6" fill="#323232"/><rect width="17.9" height="4.5" x="127" y="111.1" fill="#323232"/><rect width="4.4" height="4.7" x="140.5" y="115.6" fill="#323232"/><rect width="17.7" height="5.2" x="46.4" y="128.9" fill="#323232"/><rect width="17.8" height="5.2" x="127.1" y="128.9" fill="#171817"/><rect width="18" height="6.2" x="46.1" y="134.1" fill="#171817"/><rect width="17.8" height="5.7" x="127.1" y="134.1" fill="#0E0F0E"/><rect width="18.1" height="7" x="46" y="140.3" fill="#0E0F0E"/><rect width="17.8" height="7.5" x="127.1" y="139.8" fill="#0E0F0E"/><rect width="9.4" height="17.7" x="64.1" y="147.3" fill="#272727"/><rect width="17.6" height="8.9" x="73.4" y="147.3" fill="#272727"/><rect width="36" height="8.9" x="91" y="147.3" fill="#222522"/><rect width="8.8" height="8.8" x="118.4" y="156.2" fill="#222522"/></g></g></svg>