<svg xmlns="http://www.w3.org/2000/svg" xmlns:svg="http://www.w3.org/2000/svg" xmlns:xlink="http://www.w3.org/1999/xlink" id="svg897" x="0" y="0" enable-background="new 0 0 4114.8 802.3" version="1.1" viewBox="0 0 4114.8 802.3" xml:space="preserve"><metadata id="metadata903"/><g id="Réteg_2"><linearGradient id="SVGID_1_" x1="2161.098" x2="2161.098" y1="-60.525" y2="681.664" gradientTransform="matrix(2.0069 0 0 1.171 -2279.7168 -76.362)" gradientUnits="userSpaceOnUse"><stop style="stop-color:#bddbf3" id="stop2" offset="0"/><stop style="stop-color:#fce6ac" id="stop4" offset=".821"/></linearGradient><rect id="rect7" width="4114.8" height="797.3" x="0" y="-2" fill="url(#SVGID_1_)"/></g><rect style="fill:#1fb2ce" id="rect36" width="4114.8" height="285.6" x="0" y="511.7"/><g id="g42"><path style="fill:#88d2d6" id="path38" d="m 1578.2,533 c -11.2,12.2 -42.1,7.8 -59.4,7 -30.1,-1.4 -60.9,-0.3 -91,-0.3 -15.2,0 -31.5,-1.1 -46.5,0.9 -15.5,2 -18.5,11.1 -2.3,16 9.3,2.8 19.4,3.7 29.4,4.8 10.2,1.1 29,1.9 34.4,9 11.7,15.3 -22.7,16.6 -38.5,16.5 -35.2,-0.2 -70.5,-3.2 -105.7,-2.5 -13,0.2 -26.7,0.5 -39.2,3.1 -9,1.8 -41.3,11.7 -25.9,20.9 12.8,7.6 32.5,9.9 49.4,10.9 14.5,0.8 61.8,1.6 56.2,17.8 -6.1,17.6 -56.5,14.2 -77.3,14.7 -15.1,0.4 -35.7,0.3 -47.2,7.7 -16.1,10.4 -12.5,25 7.7,32.1 18.5,6.5 44.5,2.8 61.3,11 10.1,5 18.1,11.1 9.9,18.8 -6.6,6.2 -18.8,10.6 -13,19.8 5.3,8.3 16.4,14.2 28,19 48.2,19.9 107.3,23 163.3,23.6 134.3,1.4 268.2,-10.2 402.5,-7.9 58,1 113.4,-0.9 168.7,-13 11.5,-2.5 30.7,-6.1 36.8,-13.7 3.8,-4.8 6.7,-11.8 -2.9,-14.7 -11.4,-3.5 -24.8,-3.4 -37.1,-4.5 -15,-1.3 -40.2,-7.3 -26.7,-20.2 12.8,-12.2 43,-9.7 62.6,-13.2 21.2,-3.9 30.1,-13.8 24.1,-27.8 -5.3,-12.5 -19.6,-19.1 -39.3,-21.1 -30.5,-3.1 -65.7,2.7 -94.7,-5.1 -29.4,-7.9 -26.3,-30.2 3.5,-37.1 19,-4.4 39,-2.8 58.7,-4.4 13.5,-1.1 47.4,-9.2 39.9,-22.1 -7.2,-12.4 -50.6,-13.2 -67.4,-15.4 -11.1,-1.4 -40.5,-3.9 -40.3,-14.5 0.1,-6.4 8.1,-10.9 16.7,-13.4 5.9,-1.7 11.9,-3 17.9,-4.4 10.5,-2.6 16.4,-8.4 8.5,-13 H 1568 c 7.7,4 16.8,7.6 10.2,14.7 z"/><path style="fill:#b3e1e4" id="path40" d="m 1932.5,699 c 13,-1.3 46.5,-0.7 40.4,-14.4 -8,-18 -30.4,-18.8 -55,-22.2 -15.1,-2.1 -27.8,-5.8 -39,-12.7 -44.1,-27.5 29.1,-43.1 54.8,-58.5 36.7,-21.9 -31.4,-28.7 -50.2,-39.1 -20,-11.1 -15,-22.4 -6.7,-34 h -257.6 c 12.3,10.2 25.5,23 19.9,34.4 -6.6,13.5 -27.7,18.2 -48.2,16.3 -16.9,-1.5 -34.9,-6 -52,-5.2 -11.6,0.5 -27.3,6.3 -18.8,15.1 2.9,3 6.5,5.7 10,8.4 10.3,7.9 19,16.9 5.8,25.7 -21.2,14.1 -70.6,2.3 -96.5,2.5 -8.5,0.1 -43.6,5.7 -28.4,14.5 6.9,4 15,6.9 23.2,9.7 13.2,4.5 30.8,9.1 39.2,17.5 5.7,5.7 3.5,10.3 -4.6,14.5 -12.9,6.6 -28.7,10 -35,20.8 -7.4,12.8 -2.4,24.5 14.2,33.2 42.9,22.4 111.3,26.5 164.2,29.9 56.6,3.6 113.9,4.9 170.8,3.3 20.4,-0.6 40.8,-2.1 61.2,-3.3 21.5,-1.3 61.3,-4.7 57.3,-24.2 -1.2,-5.7 -9.5,-13.7 -4.7,-19.4 6.4,-7.8 23,-11.6 35.7,-12.8 z"/></g><g id="g60"><g style="opacity:.4" id="g46"><path style="fill:#fff" id="path44" d="m 2341.1,555.8 c 0,0 1.5,0.2 4.4,0.6 2.9,0.4 7.2,1.1 12.9,1.7 11.3,1.3 27.9,2.7 49.1,2.6 21.2,0 46.9,-1.8 76.2,-5.4 29.3,-3.5 62.2,-9 98.3,-13.6 18.1,-2.3 36.9,-4.3 56.5,-5.5 19.6,-1.1 39.9,-1.5 60.8,-0.3 2.6,0.2 5.2,0.3 7.8,0.5 l 2,0.1 2,0.2 c 1.3,0.1 2.6,0.3 3.9,0.4 5.2,0.5 10.5,1.3 15.9,1.9 10.6,1.5 21.3,3.4 32,5.5 21.5,4.1 43.3,9.1 65.7,12.6 11.2,1.8 22.5,3.3 34,4.2 2.9,0.3 5.7,0.4 8.6,0.6 l 4.3,0.2 1.1,0.1 c 0.3,0 0.7,0 1.1,0 h 2.2 c 2.9,0 5.8,0.1 8.7,0.1 l 4.4,0.1 h 4.4 c 23.3,-0.1 47,-1.5 70.6,-4 47.4,-4.9 95.2,-13.6 143.6,-17.7 6,-0.6 12.1,-0.8 18.2,-1.2 6.1,-0.1 12.2,-0.4 18.2,-0.3 6.1,-0.1 12.1,0.2 18.2,0.3 6.1,0.3 12.1,0.6 18.1,1 24.2,1.7 48.1,4.9 71.7,8.4 23.6,3.6 47,7.5 70.1,10.7 11.6,1.6 23.1,3 34.6,4.2 11.5,1.1 22.9,2 34.2,2.5 11.3,0.4 22.6,0.6 33.7,0.3 2.8,-0.1 5.6,-0.2 8.3,-0.4 1.4,-0.1 2.8,-0.1 4.1,-0.2 1.4,-0.1 2.8,-0.2 4.1,-0.3 2.7,-0.2 5.5,-0.4 8.2,-0.6 2.7,-0.3 5.4,-0.6 8.2,-0.9 1.4,-0.1 2.7,-0.3 4.1,-0.4 1.3,-0.2 2.7,-0.4 4,-0.6 2.7,-0.4 5.4,-0.7 8,-1.1 5.3,-0.9 10.7,-1.7 15.9,-2.6 10.5,-1.8 20.9,-3.8 31.1,-5.7 20.5,-3.9 40.4,-7.7 59.9,-10.3 19.5,-2.7 38.4,-4.3 56.6,-4.5 2.3,0 4.5,0 6.8,0 2.3,0 4.5,-0.1 6.7,0 4.5,0.1 8.9,0.2 13.2,0.3 4.3,0.2 8.6,0.4 12.9,0.6 4.2,0.3 8.4,0.5 12.6,0.8 16.5,1.2 32.2,2.7 46.9,4.2 29.4,3.1 55,6.2 76.1,8.3 21.1,2.1 37.7,3.4 49.1,4.1 5.7,0.4 10,0.5 13,0.7 2.9,0.1 4.4,0.2 4.4,0.2 0,0 -1.5,-0.1 -4.4,-0.2 -2.9,-0.1 -7.3,-0.2 -13,-0.6 -11.4,-0.6 -28,-1.7 -49.1,-3.7 -21.1,-1.9 -46.7,-4.9 -76.1,-7.7 -14.7,-1.4 -30.4,-2.8 -46.9,-3.9 -16.5,-1 -33.9,-1.9 -52.1,-1.5 -18.1,0.3 -37,2 -56.4,4.7 -19.4,2.7 -39.3,6.6 -59.7,10.6 -10.2,2 -20.6,4 -31.1,5.9 -5.3,1 -10.6,1.8 -15.9,2.7 -2.7,0.4 -5.4,0.8 -8.1,1.2 -1.4,0.2 -2.7,0.4 -4.1,0.6 -1.4,0.2 -2.7,0.3 -4.1,0.5 -2.7,0.3 -5.5,0.6 -8.2,0.9 -2.7,0.2 -5.5,0.4 -8.3,0.7 -1.4,0.1 -2.8,0.2 -4.2,0.3 -1.4,0.1 -2.8,0.1 -4.2,0.2 -2.8,0.1 -5.6,0.3 -8.4,0.4 -11.2,0.3 -22.5,0.2 -33.9,-0.2 -11.4,-0.5 -22.8,-1.3 -34.3,-2.5 -11.5,-1.2 -23.1,-2.6 -34.7,-4.2 -23.2,-3.2 -46.6,-7.1 -70.1,-10.6 -23.6,-3.5 -47.4,-6.7 -71.5,-8.3 -6,-0.5 -12,-0.7 -18.1,-1 -6,-0.1 -12.1,-0.4 -18.1,-0.3 -6,-0.1 -12.1,0.2 -18.1,0.3 -6,0.3 -12,0.6 -18.1,1.2 -24.1,2.1 -48.1,5.2 -72.1,8.4 -23.9,3.3 -47.8,6.6 -71.5,9.1 -23.8,2.5 -47.5,3.8 -70.9,3.9 h -4.4 l -4.4,-0.1 c -2.9,-0.1 -5.8,-0.1 -8.7,-0.2 h -2.2 c -0.4,0 -0.7,0 -1.1,0 l -1.1,-0.1 -4.4,-0.3 c -2.9,-0.2 -5.8,-0.3 -8.7,-0.6 -11.6,-0.9 -22.9,-2.5 -34.2,-4.2 -11.3,-1.8 -22.3,-3.9 -33.3,-6.2 -11,-2.2 -21.8,-4.5 -32.5,-6.6 -10.7,-2.1 -21.3,-4 -31.9,-5.6 -5.3,-0.7 -10.5,-1.5 -15.8,-2 -1.3,-0.1 -2.6,-0.3 -3.9,-0.4 l -1.9,-0.2 -2,-0.1 c -2.6,-0.2 -5.2,-0.4 -7.8,-0.5 -20.8,-1.3 -41,-1 -60.6,0.1 -19.5,1.1 -38.4,3.1 -56.4,5.3 -18,2.2 -35.3,4.7 -51.7,7 -16.4,2.3 -32,4.4 -46.7,6 -29.4,3.4 -55.1,4.9 -76.4,4.8 -21.2,-0.1 -37.9,-1.6 -49.1,-2.9 -5.7,-0.6 -9.9,-1.3 -12.9,-1.8 -2.4,-0.5 -3.9,-0.7 -3.9,-0.7 z"/></g><g style="opacity:.4" id="g50"><path style="fill:#fff" id="path48" d="m 2476.1,587 c 0,0 1.3,-0.1 3.8,-0.3 2.4,-0.2 6,-0.4 10.6,-1 2.3,-0.3 4.8,-0.5 7.5,-0.9 2.7,-0.4 5.7,-0.8 8.8,-1.3 3.1,-0.5 6.5,-1.1 10,-1.7 3.5,-0.7 7.2,-1.4 11.1,-2.1 7.7,-1.6 16,-3.3 24.8,-5.3 8.8,-1.9 18.1,-4 27.8,-5.8 9.7,-1.9 19.7,-3.5 30,-4.6 2.6,-0.3 5.2,-0.5 7.8,-0.8 2.6,-0.2 5.2,-0.3 7.8,-0.5 2.6,-0.2 5.2,-0.2 7.9,-0.3 l 4,-0.1 c 0.7,0 1.3,0 2,0 h 2 c 2.6,0.1 5.2,0.1 7.9,0.2 l 2,0.1 2,0.1 3.9,0.3 c 5.3,0.3 10.4,1 15.6,1.6 10.3,1.5 20.3,3.4 29.9,5.6 9.6,2.2 18.8,4.6 27.5,6.7 4.4,1.1 8.6,2.1 12.7,3 2.1,0.4 4.1,0.9 6.1,1.3 2,0.4 4,0.8 5.9,1.2 3.9,0.7 7.5,1.4 11.1,1.9 3.5,0.5 6.9,1.1 10.1,1.3 1.6,0.2 3.1,0.3 4.6,0.5 1.5,0.1 2.9,0.3 4.3,0.4 2.8,0.1 5.3,0.3 7.6,0.4 2.3,0.2 4.3,0.1 6.1,0.2 1.8,0 3.3,0 4.5,0 2.5,0 3.8,0 3.8,0 0,0 -1.3,0 -3.8,0.1 -1.2,0 -2.7,0.1 -4.5,0.2 -1.8,0.1 -3.8,0.2 -6.1,0.1 -2.3,0 -4.8,-0.1 -7.6,-0.2 -1.4,0 -2.8,-0.1 -4.3,-0.2 -1.5,-0.1 -3,-0.2 -4.6,-0.3 -3.2,-0.2 -6.6,-0.6 -10.1,-1 -3.6,-0.3 -7.3,-1 -11.2,-1.6 -2,-0.3 -3.9,-0.7 -5.9,-1.1 -2,-0.4 -4.1,-0.8 -6.2,-1.2 -4.1,-0.9 -8.5,-1.8 -12.8,-2.8 -8.8,-2 -18,-4.1 -27.6,-6.3 -9.6,-2.1 -19.5,-3.9 -29.7,-5.3 -5.1,-0.6 -10.2,-1.3 -15.4,-1.5 l -3.9,-0.3 -1.9,-0.1 h -2 c -2.6,-0.1 -5.2,-0.1 -7.9,-0.2 l -2,-0.1 c -0.6,0 -1.3,0 -1.9,0 l -3.9,0.1 c -2.6,0.1 -5.2,0.1 -7.8,0.3 -2.6,0.2 -5.2,0.3 -7.8,0.5 -2.6,0.3 -5.1,0.5 -7.7,0.8 -10.2,1.2 -20.2,2.6 -29.9,4.4 -9.6,1.7 -19,3.6 -27.8,5.3 -8.8,1.8 -17.2,3.4 -24.9,4.8 -3.9,0.7 -7.6,1.3 -11.1,1.9 -3.6,0.5 -6.9,1 -10.1,1.4 -3.2,0.4 -6.1,0.7 -8.9,1 -2.8,0.3 -5.3,0.5 -7.6,0.7 -1.1,0.1 -2.2,0.2 -3.2,0.3 -1,0.1 -2,0.1 -2.9,0.1 -1.8,0.1 -3.3,0.1 -4.5,0.2 -2.7,-0.2 -4,-0.1 -4,-0.1 z"/></g><g style="opacity:.4" id="g54"><path style="fill:#fff" id="path52" d="m 3052.7,581.8 c 0,0 1.1,0 3.3,-0.1 2.1,-0.1 5.3,-0.2 9.3,-0.4 4,-0.2 8.8,-0.5 14.4,-0.8 5.5,-0.4 11.8,-0.8 18.6,-1.3 6.8,-0.5 14.2,-1 22,-1.6 7.8,-0.5 16.1,-1.1 24.7,-1.3 8.6,-0.3 17.4,-0.4 26.5,0 1.1,0 2.3,0.1 3.4,0.1 1.1,0.1 2.3,0.1 3.4,0.2 2.3,0.2 4.5,0.2 6.8,0.5 2.3,0.2 4.6,0.4 6.8,0.7 l 6.8,0.7 3.4,0.4 3.4,0.5 c 2.3,0.3 4.5,0.6 6.8,0.9 4.5,0.7 9,1.4 13.4,2.1 8.9,1.5 17.6,3.2 26,4.7 8.4,1.6 16.5,3.1 24.2,4.4 3.9,0.6 7.6,1.3 11.3,1.8 3.6,0.5 7.2,1.1 10.6,1.5 3.4,0.4 6.6,0.8 9.7,1.1 3.1,0.3 6,0.7 8.8,0.8 2.8,0.2 5.4,0.4 7.8,0.5 2.4,0.1 4.6,0.1 6.6,0.2 1,0 1.9,0.1 2.8,0.1 0.9,0 1.7,0 2.5,0 1.5,0 2.9,0 3.9,0 2.1,0 3.3,0 3.3,0 0,0 -1.1,0.1 -3.3,0.2 -1.1,0.1 -2.4,0.1 -3.9,0.2 -0.8,0 -1.6,0.1 -2.5,0.1 -0.9,0 -1.8,0 -2.8,0 -2,0 -4.2,0 -6.6,0.1 -2.4,0 -5,-0.1 -7.8,-0.2 -5.6,-0.2 -11.8,-0.6 -18.7,-1.3 -3.4,-0.3 -7,-0.8 -10.6,-1.2 -3.7,-0.5 -7.4,-1 -11.3,-1.6 -7.8,-1.2 -15.9,-2.5 -24.4,-4 -8.4,-1.5 -17.1,-3 -26,-4.4 -4.4,-0.8 -8.9,-1.4 -13.4,-2.1 -2.2,-0.3 -4.5,-0.6 -6.7,-0.9 l -3.4,-0.4 -3.4,-0.4 -6.8,-0.8 c -2.3,-0.2 -4.5,-0.4 -6.8,-0.7 -2.2,-0.3 -4.5,-0.3 -6.7,-0.5 -1.1,-0.1 -2.2,-0.1 -3.4,-0.2 -1.1,0 -2.2,-0.1 -3.4,-0.1 -4.5,-0.2 -8.9,-0.3 -13.3,-0.3 -4.4,0 -8.7,0 -13,0.1 -17.1,0.3 -33,1.2 -46.7,1.9 -6.8,0.4 -13.1,0.6 -18.7,0.8 -5.6,0.2 -10.4,0.3 -14.4,0.3 -4,0.1 -7.1,0 -9.3,0 -2,-0.3 -3.2,-0.3 -3.2,-0.3 z"/></g><g style="opacity:.4" id="g58"><path style="fill:#fff" id="path56" d="m 3547.6,581.8 c 0,0 1.1,0.1 3.1,0.2 1,0.1 2.2,0.1 3.7,0.2 0.7,0 1.5,0.1 2.4,0.1 0.8,0 1.7,0 2.7,0 1.9,0 4,0.1 6.2,0.1 2.3,-0.1 4.7,-0.1 7.3,-0.2 2.6,0 5.4,-0.3 8.3,-0.4 2.9,-0.1 6,-0.4 9.2,-0.7 6.4,-0.5 13.4,-1.3 20.7,-2.2 7.3,-0.9 15.1,-1.9 23.1,-2.9 8,-1 16.3,-2 24.8,-2.7 8.5,-0.7 17.1,-1.1 25.8,-1.1 2.2,0 4.3,0.1 6.5,0.2 l 3.2,0.1 c 1.1,0.1 2.2,0.2 3.2,0.2 2.1,0.2 4.3,0.3 6.4,0.5 2.1,0.2 4.3,0.4 6.4,0.6 8.5,0.9 16.7,2.1 24.7,3.4 8,1.3 15.7,2.6 22.9,3.8 7.3,1.2 14.2,2.3 20.6,3.2 1.6,0.2 3.2,0.4 4.7,0.6 1.5,0.2 3,0.3 4.5,0.5 2.9,0.4 5.7,0.6 8.3,0.8 2.6,0.3 5.1,0.4 7.3,0.5 2.3,0.2 4.3,0.2 6.2,0.2 1.9,0 3.6,0.1 5,0.1 1.5,0 2.7,0 3.7,-0.1 2,0 3.1,0 3.1,0 0,0 -1.1,0.1 -3.1,0.2 -1,0.1 -2.2,0.2 -3.7,0.2 -1.5,0.1 -3.1,0.1 -5,0.1 -1.9,0 -4,0.1 -6.2,0 -2.3,-0.1 -4.7,0 -7.4,-0.2 -2.6,-0.1 -5.4,-0.3 -8.4,-0.5 -1.5,-0.1 -3,-0.3 -4.5,-0.4 -1.5,-0.2 -3.1,-0.3 -4.7,-0.5 -12.9,-1.4 -27.8,-3.7 -43.7,-6.1 -8,-1.2 -16.2,-2.2 -24.6,-3.1 -2.1,-0.2 -4.2,-0.4 -6.3,-0.6 -2.1,-0.2 -4.3,-0.3 -6.4,-0.5 -1.1,-0.1 -2.2,-0.2 -3.2,-0.2 l -3.2,-0.1 c -2.1,0 -4.3,-0.2 -6.4,-0.2 -8.6,0 -17.1,0.3 -25.5,1 -8.4,0.7 -16.7,1.5 -24.7,2.4 -8,0.9 -15.8,1.7 -23.1,2.5 -7.4,0.7 -14.3,1.3 -20.8,1.7 -6.5,0.4 -12.4,0.6 -17.6,0.5 -2.6,0 -5.1,0 -7.4,-0.1 -2.3,-0.1 -4.4,-0.2 -6.2,-0.3 -0.9,-0.1 -1.8,-0.1 -2.7,-0.1 -0.8,-0.1 -1.6,-0.2 -2.3,-0.2 -1.5,-0.2 -2.7,-0.3 -3.7,-0.4 -2.1,0 -3.2,-0.1 -3.2,-0.1 z"/></g></g><g id="g236"><g style="opacity:.4" id="g222"><path style="fill:#fff" id="path220" d="m 171.5,552.5 c 0,0 0.7,0.2 2.2,0.6 1.4,0.4 3.5,1.1 6.3,1.7 5.6,1.3 13.9,2.6 24.7,2.6 5.3,-0.1 11.3,-0.4 17.6,-1.4 6.4,-0.9 13.2,-2.3 20.5,-4.1 14.5,-3.5 30.5,-8.9 48.3,-13.5 8.9,-2.3 18.3,-4.3 28.2,-5.5 2.5,-0.3 5,-0.6 7.5,-0.7 1.3,-0.1 2.5,-0.2 3.8,-0.2 1.3,0 2.6,-0.1 3.9,-0.1 1.3,-0.1 2.6,0 3.9,0 1.3,0 2.6,0.1 3.9,0.1 1.3,0.1 2.6,0.2 3.9,0.3 l 2,0.2 2,0.3 c 1.3,0.2 2.6,0.3 4,0.5 1.3,0.3 2.6,0.5 4,0.8 1.3,0.2 2.6,0.6 3.9,0.9 1.3,0.4 2.7,0.7 3.9,1.1 5.2,1.5 10.4,3.4 15.6,5.4 10.3,4 20.6,8.7 31.5,12.2 2.7,0.9 5.5,1.7 8.2,2.4 1.4,0.3 2.8,0.7 4.2,1 1.4,0.4 2.8,0.5 4.2,0.8 l 2.1,0.4 2.1,0.3 2.2,0.2 1.1,0.1 c 0.1,0 0.2,0 0.2,0 h 0.3 0.6 c 1.5,0.1 2.9,0.1 4.4,0.2 l 2.2,0.1 c 0.7,0 1.5,0 2.2,0 11.7,-0.1 23.5,-1.4 35.3,-3.9 23.5,-4.9 46.6,-13.4 71,-17.7 l 2.3,-0.4 1.1,-0.2 1.2,-0.1 4.7,-0.5 c 3.1,-0.2 6.2,-0.4 9.3,-0.3 3.1,-0.1 6.2,0.2 9.3,0.4 l 4.6,0.5 c 1.5,0.1 3.1,0.4 4.6,0.6 12.2,1.8 24,5 35.6,8.5 11.6,3.5 22.9,7.4 34.2,10.6 5.7,1.6 11.3,3 17,4.2 5.7,1.1 11.4,2 17,2.6 5.7,0.5 11.3,0.6 16.9,0.3 1.4,-0.1 2.8,-0.2 4.2,-0.4 l 2.1,-0.2 2,-0.3 c 1.4,-0.2 2.7,-0.4 4.1,-0.6 1.3,-0.3 2.7,-0.6 4,-0.9 0.7,-0.2 1.3,-0.3 2,-0.4 l 2,-0.6 c 1.3,-0.4 2.6,-0.7 3.9,-1.1 2.6,-0.9 5.2,-1.7 7.7,-2.6 5.1,-1.8 10.1,-3.7 15,-5.5 9.8,-3.8 19.4,-7.5 29,-10.2 9.6,-2.7 19.1,-4.4 28.4,-4.8 2.3,-0.1 4.6,-0.1 6.9,-0.1 2.3,0.1 4.5,0.2 6.7,0.3 2.2,0.2 4.4,0.4 6.5,0.6 2.1,0.3 4.3,0.5 6.3,0.8 8.3,1.2 16.1,2.7 23.5,4.2 14.6,3.1 27.3,6.2 37.8,8.3 10.5,2.1 18.8,3.5 24.5,4.1 1.4,0.2 2.7,0.3 3.8,0.4 1.1,0.1 2,0.2 2.7,0.3 1.5,0.1 2.2,0.2 2.2,0.2 0,0 -0.8,-0.1 -2.2,-0.2 -0.7,-0.1 -1.7,-0.1 -2.8,-0.2 -1.1,-0.1 -2.4,-0.2 -3.8,-0.4 -5.7,-0.6 -14.1,-1.7 -24.6,-3.7 -10.5,-2 -23.2,-4.9 -37.9,-7.8 -7.3,-1.4 -15.1,-2.8 -23.4,-3.9 -2.1,-0.2 -4.2,-0.5 -6.3,-0.7 -2.1,-0.2 -4.3,-0.4 -6.5,-0.5 -2.2,-0.1 -4.4,-0.2 -6.6,-0.3 -2.2,0 -4.5,0.1 -6.8,0.2 -9.1,0.5 -18.5,2.2 -28,5 -9.5,2.8 -19,6.6 -28.8,10.4 -4.9,1.9 -9.9,3.9 -15,5.7 -2.6,1 -5.1,1.8 -7.7,2.7 -1.3,0.4 -2.7,0.8 -4,1.2 l -2,0.6 c -0.7,0.2 -1.4,0.3 -2,0.5 -1.4,0.3 -2.7,0.6 -4.1,0.9 -1.4,0.2 -2.8,0.5 -4.2,0.7 l -2.1,0.3 -2.1,0.2 c -1.4,0.1 -2.8,0.3 -4.3,0.4 -5.7,0.3 -11.5,0.2 -17.3,-0.2 -5.8,-0.5 -11.6,-1.4 -17.3,-2.6 -5.8,-1.2 -11.5,-2.6 -17.2,-4.2 -11.4,-3.2 -22.8,-7 -34.3,-10.5 -11.5,-3.5 -23.2,-6.6 -35.2,-8.3 -1.5,-0.2 -3,-0.4 -4.5,-0.6 l -4.5,-0.4 c -3,-0.2 -6,-0.4 -9.1,-0.3 -3,-0.1 -6,0.2 -9,0.3 l -4.5,0.5 -1.1,0.1 -1.1,0.2 -2.3,0.4 c -12,2.1 -23.8,5.2 -35.6,8.4 -11.8,3.2 -23.5,6.6 -35.4,9 -11.9,2.5 -23.9,3.9 -35.9,3.9 -1.5,0 -3,0 -4.4,-0.1 -1.5,-0.1 -2.9,-0.1 -4.4,-0.2 h -0.6 -0.3 c -0.2,0 -0.2,0 -0.3,0 l -1.1,-0.1 -2.2,-0.3 -2.2,-0.3 -2.2,-0.4 c -1.4,-0.3 -2.9,-0.5 -4.3,-0.8 -1.4,-0.3 -2.9,-0.7 -4.3,-1 -2.8,-0.8 -5.6,-1.6 -8.4,-2.5 -5.5,-1.8 -10.8,-3.9 -16.1,-6 -5.2,-2.1 -10.4,-4.3 -15.5,-6.4 -10.2,-4.1 -20.4,-7.6 -30.8,-8.9 l -1.9,-0.3 -1.9,-0.2 c -1.3,-0.1 -2.6,-0.2 -3.9,-0.3 -1.3,0 -2.6,-0.1 -3.8,-0.1 -1.3,0 -2.5,-0.1 -3.8,-0.1 -1.3,0 -2.5,0 -3.8,0.1 -1.3,0 -2.5,0.1 -3.8,0.2 -2.5,0.1 -5,0.4 -7.4,0.6 -9.8,1.1 -19.1,3.1 -28,5.2 -8.9,2.2 -17.4,4.7 -25.4,6.9 -8.1,2.3 -15.7,4.3 -23,6 -7.3,1.7 -14.2,3 -20.6,3.8 -6.4,0.9 -12.4,1.1 -17.8,1.2 -10.8,0 -19.1,-1.6 -24.7,-3 -2.8,-0.6 -4.9,-1.4 -6.3,-1.8 -1.5,-0.6 -2.3,-0.8 -2.3,-0.8 z"/></g><g style="opacity:.4" id="g226"><path style="fill:#fff" id="path224" d="m 238.5,583.7 c 0,0 0.7,-0.1 1.9,-0.3 1.2,-0.2 3.1,-0.5 5.4,-1.1 1.1,-0.3 2.4,-0.5 3.8,-0.9 1.4,-0.4 2.8,-0.8 4.4,-1.3 1.5,-0.5 3.2,-1.1 4.9,-1.7 1.7,-0.7 3.5,-1.4 5.4,-2.1 3.7,-1.5 7.7,-3.3 12,-5.1 4.2,-1.9 8.7,-3.8 13.5,-5.7 4.7,-1.9 9.8,-3.5 15,-4.7 5.2,-1.3 10.8,-1.8 16.3,-1.8 5.5,0.1 11,1 16.2,2.5 5.2,1.5 10.1,3.5 14.7,5.7 4.6,2.1 8.9,4.4 13.1,6.5 4.1,2 8.1,3.9 11.8,5.4 3.7,1.5 7.2,2.6 10.4,3.3 3.2,0.7 6,1.1 8.3,1.3 1.2,0.1 2.2,0.2 3.1,0.2 0.9,0.1 1.7,0.1 2.3,0 1.3,0 1.9,0 1.9,0 0,0 -0.7,0.1 -1.9,0.2 -0.6,0.1 -1.4,0.1 -2.3,0.2 -0.5,0 -1,0 -1.5,0.1 -0.5,0 -1.1,0 -1.7,0 -2.4,0 -5.3,-0.3 -8.5,-0.8 -3.3,-0.5 -6.9,-1.4 -10.8,-2.8 -3.9,-1.3 -7.9,-3 -12.2,-5 -4.2,-1.9 -8.6,-4.1 -13.2,-6.1 -2.3,-1 -4.6,-2 -7,-2.9 -2.4,-0.9 -4.9,-1.7 -7.4,-2.4 -5,-1.4 -10.2,-2.2 -15.5,-2.3 -5.2,0 -10.5,0.4 -15.6,1.6 -5.1,1.2 -10,2.6 -14.7,4.4 -4.7,1.7 -9.2,3.5 -13.5,5.2 -4.3,1.7 -8.4,3.3 -12.2,4.7 -1.9,0.7 -3.8,1.3 -5.5,1.9 -1.8,0.5 -3.5,1 -5.1,1.5 -1.6,0.4 -3.1,0.7 -4.5,1.1 -1.4,0.3 -2.7,0.5 -3.9,0.7 -2.3,0.5 -4.2,0.5 -5.4,0.6 -1.3,-0.2 -2,-0.1 -2,-0.1 z"/></g><g style="opacity:.4" id="g230"><path style="fill:#fff" id="path228" d="m 524.5,578.5 c 0,0 0.6,0 1.7,-0.1 1.1,-0.1 2.7,-0.2 4.7,-0.4 4,-0.4 9.7,-1.1 16.5,-2.2 3.4,-0.5 7.1,-1.1 11,-1.6 3.9,-0.5 8.1,-1 12.4,-1.3 1.1,-0.1 2.2,-0.1 3.3,-0.1 1.1,0 2.2,-0.1 3.3,-0.1 1.1,0 2.3,0 3.4,0 1.1,0.1 2.3,0.2 3.4,0.2 4.6,0.4 9.3,1.3 13.7,2.3 4.5,1.1 9,2.5 13.3,3.9 4.3,1.4 8.5,3.1 12.5,4.6 4,1.5 7.9,3 11.6,4.3 1.9,0.6 3.7,1.2 5.4,1.8 1.8,0.5 3.5,1.1 5.1,1.5 3.3,0.9 6.4,1.5 9.1,1.9 1.4,0.2 2.7,0.3 3.9,0.5 1.2,0.1 2.3,0.1 3.3,0.2 0.5,0 1,0.1 1.4,0.1 0.4,0 0.9,0 1.3,0 0.8,0 1.4,0 2,0 1.1,0 1.7,0 1.7,0 0,0 -0.6,0.1 -1.6,0.2 -0.5,0.1 -1.2,0.1 -2,0.2 -0.4,0 -0.8,0.1 -1.3,0.1 -0.4,0 -0.9,0 -1.4,0 -1,0 -2.1,0 -3.4,0.1 -1.2,0 -2.5,-0.1 -3.9,-0.2 -2.8,-0.2 -6,-0.7 -9.4,-1.4 -1.7,-0.3 -3.5,-0.8 -5.3,-1.2 -1.8,-0.5 -3.7,-1 -5.6,-1.6 -3.8,-1.2 -7.8,-2.5 -11.8,-3.9 -4.1,-1.4 -8.3,-2.9 -12.5,-4.3 -4.3,-1.5 -8.6,-2.7 -13,-3.8 -4.5,-1.1 -8.9,-2 -13.3,-2.4 -4.4,-0.4 -8.8,-0.4 -13.1,-0.3 -4.3,0.1 -8.4,0.5 -12.3,0.8 -3.9,0.4 -7.6,0.8 -11.1,1.1 -6.9,0.7 -12.6,1 -16.7,1.1 -2,0.1 -3.6,0 -4.7,0 -1,0 -1.6,0 -1.6,0 z"/></g><g style="opacity:.4" id="g234"><path style="fill:#fff" id="path232" d="m 770,578.5 c 0,0 0.5,0.1 1.5,0.2 0.5,0.1 1.1,0.1 1.9,0.2 0.4,0 0.8,0.1 1.2,0.1 0.4,0 0.9,0 1.3,0 0.9,0 2,0 3.1,0.1 1.1,-0.1 2.4,-0.1 3.7,-0.2 2.6,-0.2 5.5,-0.6 8.7,-1.1 3.2,-0.6 6.6,-1.4 10.2,-2.2 3.6,-0.9 7.4,-1.9 11.3,-2.9 3.9,-1 8.1,-2 12.3,-2.7 4.3,-0.7 8.7,-1.1 13.1,-1.1 1.1,0.1 2.2,0.1 3.3,0.2 0.6,0 1.1,0.1 1.7,0.1 l 1.6,0.2 c 2.1,0.3 4.3,0.7 6.4,1.2 4.2,0.9 8.3,2.2 12.2,3.4 3.9,1.2 7.6,2.6 11.1,3.7 3.5,1.2 6.8,2.3 10,3.1 0.8,0.2 1.5,0.4 2.3,0.6 0.7,0.2 1.5,0.3 2.2,0.5 1.4,0.4 2.8,0.6 4.1,0.8 1.3,0.3 2.5,0.4 3.6,0.5 0.6,0.1 1.1,0.2 1.6,0.2 0.5,0 1,0 1.5,0.1 0.9,0 1.8,0.1 2.5,0.1 0.7,0 1.4,0 1.9,-0.1 1,0 1.6,0 1.6,0 0,0 -0.5,0.1 -1.5,0.2 -0.5,0.1 -1.1,0.2 -1.9,0.3 -0.7,0.1 -1.6,0.1 -2.5,0.1 -0.5,0 -1,0 -1.5,0.1 -0.5,0 -1.1,0 -1.7,0 -1.2,0 -2.4,-0.1 -3.7,-0.2 -1.3,-0.1 -2.7,-0.3 -4.2,-0.6 -0.7,-0.1 -1.5,-0.3 -2.3,-0.4 -0.8,-0.2 -1.5,-0.3 -2.3,-0.5 -3.2,-0.7 -6.6,-1.6 -10.2,-2.7 -3.6,-1.1 -7.3,-2.2 -11.2,-3.3 -3.9,-1.1 -7.9,-2.2 -12,-3.1 -2,-0.4 -4.1,-0.8 -6.2,-1.1 l -1.6,-0.2 c -0.4,0 -1,-0.1 -1.5,-0.1 l -3.2,-0.2 c -4.2,0 -8.5,0.3 -12.6,1 -4.2,0.7 -8.2,1.5 -12.2,2.4 -3.9,0.9 -7.8,1.7 -11.4,2.5 -3.7,0.7 -7.2,1.4 -10.4,1.7 -3.3,0.4 -6.3,0.6 -8.9,0.6 -1.3,0 -2.6,0 -3.7,-0.1 -1.1,-0.1 -2.2,-0.2 -3.2,-0.3 -0.5,-0.1 -0.9,-0.1 -1.3,-0.2 -0.4,-0.1 -0.8,-0.2 -1.2,-0.2 -0.7,-0.2 -1.3,-0.3 -1.8,-0.4 -1.2,-0.2 -1.7,-0.3 -1.7,-0.3 z"/></g></g><g id="g670"><g id="g660"><defs id="defs655"><path id="SVGID_2_" d="m 3332.3,426.8 c -0.6,4.6 0,48.3 0,48.3 l 16.7,11.1 c 0,0 -9.9,32.2 8.7,47.9 18.6,15.7 52.7,23.6 134.6,28.2 81.9,4.6 263,-8.9 295.8,-22.9 32.9,-13.9 22.3,-47.5 13,-65.4 -17,-32.7 -4.7,-92.2 66.4,-91.7 24,0.2 49.1,12.7 49.1,12.7 0,-1.1 -5.7,-13.9 -25.2,-23.9 -19.5,-10 -49.6,-19.8 -116.6,-1.6 -67,18.2 -96.7,58.6 -158.2,77.9 -38.7,12.2 -106.5,17.4 -139.8,2.3 -12.6,-5.7 -18.3,-61.5 -20.2,-62.4 -33.6,-1.4 -93.4,-1.1 -138,4.1 l 3.1,30.7 c 1.9,0.9 10.6,4.7 10.6,4.7 z"/></defs><clipPath id="SVGID_3_"><use id="use657" width="100%" height="100%" x="0" y="0" overflow="visible" xlink:href="#SVGID_2_" style="overflow:visible"/></clipPath></g><g id="g668"><defs id="defs663"><path id="SVGID_4_" d="m 3621.9,102 h -70.7 c -4.7,0 -8.9,2.2 -8.5,4.9 l 6.8,54.2 c 0.3,2.7 3.8,4.9 8.5,4.9 h 54.6 c 4.7,0 8.1,-2.2 8.5,-4.9 l 9.3,-54.2 c 0.5,-2.7 -3.8,-4.9 -8.5,-4.9 z"/></defs><clipPath id="SVGID_5_"><use id="use665" width="100%" height="100%" x="0" y="0" overflow="visible" xlink:href="#SVGID_4_" style="overflow:visible"/></clipPath></g></g><g id="g892"><g id="g882"><defs id="defs877"><path id="SVGID_10_" d="m 3332.3,426.8 c -0.6,4.6 0,48.3 0,48.3 l 16.7,11.1 c 0,0 -9.9,32.2 8.7,47.9 18.6,15.7 52.7,23.6 134.6,28.2 81.9,4.6 263,-8.9 295.8,-22.9 32.9,-13.9 22.3,-47.5 13,-65.4 -17,-32.7 -4.7,-92.2 66.4,-91.7 24,0.2 49.1,12.7 49.1,12.7 0,-1.1 -5.7,-13.9 -25.2,-23.9 -19.5,-10 -49.6,-19.8 -116.6,-1.6 -67,18.2 -96.7,58.6 -158.2,77.9 -38.7,12.2 -106.5,17.4 -139.8,2.3 -12.6,-5.7 -18.3,-61.5 -20.2,-62.4 -33.6,-1.4 -93.4,-1.1 -138,4.1 l 3.1,30.7 c 1.9,0.9 10.6,4.7 10.6,4.7 z"/></defs><clipPath id="SVGID_11_"><use id="use879" width="100%" height="100%" x="0" y="0" overflow="visible" xlink:href="#SVGID_10_" style="overflow:visible"/></clipPath></g><g id="g890"><defs id="defs885"><path id="SVGID_12_" d="m 3621.9,102 h -70.7 c -4.7,0 -8.9,2.2 -8.5,4.9 l 6.8,54.2 c 0.3,2.7 3.8,4.9 8.5,4.9 h 54.6 c 4.7,0 8.1,-2.2 8.5,-4.9 l 9.3,-54.2 c 0.5,-2.7 -3.8,-4.9 -8.5,-4.9 z"/></defs><clipPath id="SVGID_13_"><use id="use887" width="100%" height="100%" x="0" y="0" overflow="visible" xlink:href="#SVGID_12_" style="overflow:visible"/></clipPath></g></g><g id="g26" transform="translate(-24.082159,-4.8988067)"><path style="clip-rule:evenodd;fill:#fdec0a;fill-rule:evenodd" id="path18" d="m 1922.6,298.9 c 0,66.3 -60.3,120.1 -134.6,120.1 -74.4,0 -134.6,-53.8 -134.6,-120.1 0,-66.3 60.3,-120.1 134.6,-120.1 74.3,0 134.6,53.8 134.6,120.1 z"/><ellipse style="clip-rule:evenodd;fill:#ffcd20;fill-rule:evenodd" id="ellipse20" cx="1788" cy="298.9" rx="105.4" ry="94"/><ellipse style="clip-rule:evenodd;fill:#f8b232;fill-rule:evenodd" id="ellipse22" cx="1788" cy="298.9" rx="76.1" ry="67.9"/><ellipse style="clip-rule:evenodd;fill:#f29320;fill-rule:evenodd" id="ellipse24" cx="1788" cy="298.9" rx="42.6" ry="38"/></g></svg>