<svg xmlns="http://www.w3.org/2000/svg" xmlns:xlink="http://www.w3.org/1999/xlink" x="0" y="0" enable-background="new 0 0 170.4 262" version="1.1" viewBox="0 0 170.4 262" xml:space="preserve"><g id="Réteg_2"><g><rect width="4.5" height="22.9" x="29.9" y="84.9" fill="#BFA7C1"/><rect width="4.7" height="8.8" x="34.4" y="76.1" fill="#BFA7C1"/><rect width="4.4" height="14.3" x="39.1" y="61.7" fill="#BFA7C1"/><rect width="9.4" height="13.9" x="43.5" y="47.8" fill="#BFA7C1"/><rect width="5.2" height="10.5" x="84.9" y="52.2" fill="#BFA7C1"/><rect width="4" height="23.2" x="90.1" y="61.7" fill="#BFA7C1"/><rect width="6.6" height="9.7" x="70.8" y="75.2" fill="#BFA7C1"/><rect width="10.2" height="4.4" x="61.6" y="76.1" fill="#BFA7C1"/><rect width="10.3" height="15.7" x="52.8" y="78.9" fill="#D7C1D8"/><rect width="18.2" height="36.5" x="52.6" y="43.9" fill="#D7C1D8"/><rect width="17" height="27.9" x="67.9" y="47.8" fill="#D7C1D8"/><rect width="5.2" height="31.6" x="84.9" y="62.8" fill="#D7C1D8"/><rect width="8.5" height="13.4" x="76.4" y="75.7" fill="#D7C1D8"/><rect width="10" height="46" x="42.9" y="61.7" fill="#D7C1D8"/><rect width="10" height="36.7" x="38.4" y="76.1" fill="#D7C1D8"/><rect width="4.7" height="27.8" x="34.4" y="84.9" fill="#D7C1D8"/><rect width="27.8" height="4.7" x="103.3" y="98.5" fill="#8F2549"/><rect width="14.1" height="4.5" x="89.3" y="103.2" fill="#8F2549"/><rect width="4.4" height="4.7" x="84.9" y="98.5" fill="#8F2549"/><rect width="10.1" height="4.1" x="74.8" y="94.4" fill="#8F2549"/><rect width="5.9" height="6.4" x="69.6" y="87.9" fill="#8F2549"/><rect width="4" height="4.7" x="66.8" y="84.9" fill="#8F2549"/><rect width="3.8" height="4.8" x="63" y="80.5" fill="#8F2549"/><rect width="5.5" height="24.6" x="131.2" y="102.2" fill="#8F2549"/><rect width="5.1" height="5" x="126.1" y="126" fill="#8F2549"/><rect width="13.6" height="4.4" x="112.4" y="131.1" fill="#8F2549"/><rect width="5.6" height="22.6" x="42.8" y="112.7" fill="#8F2549"/><rect width="4.1" height="4.1" x="48.8" y="135.3" fill="#8F2549"/><rect width="10" height="6.7" x="52.8" y="138.1" fill="#8F2549"/><rect width="4.8" height="13.6" x="117.3" y="149.2" fill="#272727"/><rect width="4.4" height="9.3" x="108" y="130.7" fill="#272727"/><rect width="4.4" height="10.2" x="108" y="116.6" fill="#272727"/><rect width="4.1" height="5.2" x="103.9" y="111.6" fill="#272727"/><rect width="14.1" height="4.6" x="70.8" y="112.7" fill="#272727"/><rect width="9.9" height="3.7" x="70.8" y="117.3" fill="#272727"/><rect width="7.1" height="14.3" x="67.9" y="121" fill="#272727"/><rect width="4.8" height="13.2" x="56.8" y="149.2" fill="#272727"/><rect width="13.3" height="4.1" x="61.7" y="162.9" fill="#272727"/><rect width="5" height="8.6" x="75.8" y="154.3" fill="#272727"/><rect width="4.2" height="8.9" x="70.8" y="145.3" fill="#272727"/><rect width="5.1" height="7.2" x="62.8" y="138.1" fill="#272727"/><rect width="14.5" height="5" x="103.3" y="149.2" fill="#272727"/><rect width="5.4" height="3.7" x="103.3" y="154.3" fill="#272727"/><rect width="9.1" height="8.6" x="108.8" y="154.3" fill="#5D504D"/><rect width="5.4" height="4.8" x="112.4" y="139.5" fill="#5D504D"/><rect width="2.9" height="27.6" x="67.9" y="135.3" fill="#5D504D"/><rect width="5" height="8.6" x="70.8" y="154.3" fill="#5D504D"/><rect width="6.6" height="18.1" x="61.2" y="144.8" fill="#5D504D"/><rect width="14.2" height="4.3" x="84.9" y="144.8" fill="#5A3E32"/><rect width="4.1" height="5.3" x="80.7" y="140" fill="#5A3E32"/><rect width="4.1" height="10.2" x="103.9" y="116.6" fill="#BE805F"/><rect width="4.4" height="9.5" x="108" y="140" fill="#BE805F"/><rect width="5" height="11.8" x="70.8" y="134.5" fill="#BE805F"/><rect width="19" height="9.3" x="84.9" y="111.6" fill="#FDAA7E"/><rect width="14.6" height="5.8" x="89.3" y="121" fill="#FDAA7E"/><rect width="4.1" height="4.2" x="80.7" y="116.8" fill="#FDAA7E"/><rect width="5" height="4.3" x="94" y="126.8" fill="#FDAA7E"/><rect width="14.1" height="4.3" x="89.3" y="131.1" fill="#FDAA7E"/><rect width="6.9" height="26.1" x="74" y="120.3" fill="#FDAA7E"/><rect width="4.1" height="8.9" x="80.7" y="131.1" fill="#FDAA7E"/><rect width="4.4" height="9.5" x="84.9" y="135.3" fill="#FDAA7E"/><rect width="4.7" height="14" x="103.3" y="135.3" fill="#FDAA7E"/><rect width="4.3" height="18" x="99.1" y="131.1" fill="#FDAA7E"/><rect width="9.9" height="10.4" x="89.2" y="134.4" fill="#FDAA7E"/><rect width="5.4" height="9.8" x="103.3" y="157.9" fill="#B57959"/><rect width="18.3" height="5.4" x="85" y="162.5" fill="#B57959"/><rect width="4.3" height="8.6" x="80.7" y="154.3" fill="#B57959"/><rect width="18.9" height="13.5" x="84.4" y="149" fill="#B98E76"/><rect width="9.9" height="8.9" x="75" y="145.3" fill="#B98E76"/><rect width="10" height="5.2" x="75" y="162.9" fill="#FFF"/><rect width="8.2" height="14.2" x="95.6" y="167.7" fill="#FFF"/><rect width="10" height="4.5" x="88.8" y="181.6" fill="#FFF"/><rect width="11.1" height="13.9" x="84.6" y="167.7" fill="#FFF"/><rect width="5.3" height="4.8" x="61.6" y="186.1" fill="#FFF"/><rect width="5.5" height="10.3" x="75.1" y="207.9" fill="#FFF"/><rect width="5.1" height="9.2" x="98.8" y="209" fill="#FFF"/><rect width="6.4" height="4.5" x="111.5" y="186.1" fill="#FFF"/><rect width="6.8" height="5.8" x="111.2" y="190.2" fill="#FDAA7E"/><rect width="5" height="5" x="56.8" y="195.1" fill="#717171"/><rect width="5.6" height="4.9" x="75" y="218.2" fill="#717171"/><rect width="6.1" height="4.9" x="97.7" y="218.2" fill="#717171"/><rect width="5.2" height="9.2" x="61.7" y="190.9" fill="#A1A1A1"/><rect width="4.2" height="6.6" x="103.9" y="171.9" fill="#B5762D"/><rect width="6.4" height="4.9" x="111.5" y="181.3" fill="#701E22"/><rect width="4.2" height="4.3" x="103.9" y="167.5" fill="#701E22"/><rect width="4" height="9.3" x="80.6" y="167.7" fill="#701E22"/><rect width="6.4" height="4.6" x="74.2" y="167.7" fill="#701E22"/><rect width="5.3" height="9.7" x="61.6" y="176.4" fill="#701E22"/><rect width="4.6" height="3.5" x="66.2" y="181.9" fill="#701E22"/><rect width="4.9" height="9.4" x="107.5" y="177" fill="#C93735"/><rect width="8.6" height="9.7" x="103.9" y="199.3" fill="#C93735"/><rect width="9.2" height="13.8" x="98.8" y="190.2" fill="#C93735"/><rect width="4.5" height="8.3" x="98.8" y="181.9" fill="#C93735"/><rect width="5.1" height="9.8" x="93.7" y="186.1" fill="#C93735"/><rect width="8.5" height="5.5" x="80.5" y="190.2" fill="#C93735"/><rect width="18.9" height="5.4" x="61.7" y="204" fill="#C93735"/><rect width="17.6" height="4.8" x="67" y="199.8" fill="#C93735"/><rect width="13.8" height="5.1" x="70.8" y="195.5" fill="#C93735"/><rect width="5" height="1.9" x="75.6" y="193.6" fill="#C93735"/><rect width="3.4" height="1" x="80.5" y="189.2" fill="#C93735"/><rect width="4.2" height="5.3" x="70.8" y="167" fill="#C93735"/><rect width="4.7" height="10.1" x="66.1" y="171.9" fill="#C93735"/><rect width="10.1" height="4.6" x="70.5" y="172.3" fill="#C93735"/><rect width="5" height="6.2" x="75.6" y="176.4" fill="#C93735"/><rect width="18.7" height="22.8" x="112.4" y="103.2" fill="#791F3E"/><rect width="13.6" height="5" x="112.4" y="126" fill="#791F3E"/><rect width="4.4" height="14.1" x="108" y="103.2" fill="#791F3E"/><rect width="4.7" height="8.4" x="103.3" y="103.2" fill="#791F3E"/><rect width="14.1" height="3.9" x="89.3" y="107.8" fill="#791F3E"/><rect width="4.4" height="8.4" x="84.9" y="103.2" fill="#791F3E"/><rect width="32" height="14.2" x="52.9" y="98.5" fill="#791F3E"/><rect width="21.9" height="4.1" x="52.9" y="94.4" fill="#791F3E"/><rect width="6.5" height="4.8" x="63" y="89.6" fill="#791F3E"/><rect width="3.8" height="4.7" x="63" y="84.9" fill="#791F3E"/><rect width="23.1" height="9.2" x="47.7" y="112.7" fill="#791F3E"/><rect width="5" height="5" x="47.9" y="107.8" fill="#791F3E"/><rect width="19.5" height="13.4" x="48.4" y="122" fill="#791F3E"/><rect width="15.1" height="4.1" x="52.8" y="134" fill="#791F3E"/><rect width="14.2" height="4.6" x="84.6" y="204.7" fill="#671835"/><rect width="4.4" height="4.5" x="89.2" y="200.2" fill="#671835"/><rect width="4.9" height="14.5" x="88.8" y="185.7" fill="#D7930F"/><rect width="5.1" height="8.8" x="93.7" y="196" fill="#D7930F"/><rect width="5.4" height="5.3" x="98.8" y="204" fill="#D7930F"/><rect width="4.7" height="10" x="84.6" y="194.7" fill="#D7930F"/><rect width="4" height="5.4" x="80.6" y="204" fill="#D7930F"/><rect width="4" height="12.3" x="80.6" y="177" fill="#B5762D"/><rect width="5.1" height="8.3" x="83.9" y="181.9" fill="#B5762D"/><rect width="5" height="11.1" x="75.6" y="182.5" fill="#B5762D"/><rect width="4.8" height="9.8" x="70.8" y="186.1" fill="#B5762D"/><rect width="17.9" height="4.8" x="52.9" y="39.1" fill="#010000"/><rect width="14.1" height="3.9" x="70.8" y="43.9" fill="#010000"/><rect width="5.2" height="4.4" x="84.9" y="47.8" fill="#010000"/><rect width="4" height="9.5" x="90.1" y="52.2" fill="#010000"/><rect width="5" height="23.2" x="94" y="61.7" fill="#010000"/><rect width="4.8" height="9.5" x="89.3" y="84.9" fill="#010000"/><rect width="4.4" height="4.1" x="84.9" y="94.4" fill="#010000"/><rect width="9.4" height="5.4" x="75.5" y="89" fill="#010000"/><rect width="6.2" height="4.1" x="70.8" y="84.9" fill="#010000"/><rect width="4" height="4.4" x="66.8" y="80.5" fill="#010000"/><rect width="3.9" height="3.9" x="49" y="43.9" fill="#010000"/><rect width="5.5" height="4.4" x="43.5" y="47.8" fill="#010000"/><rect width="5.1" height="9.5" x="38.4" y="52.2" fill="#010000"/><rect width="4.7" height="14.3" x="34.4" y="61.7" fill="#010000"/><rect width="4.5" height="8.8" x="29.9" y="76.1" fill="#010000"/><rect width="5" height="22.9" x="24.9" y="84.9" fill="#010000"/><rect width="4.5" height="5" x="29.9" y="107.8" fill="#010000"/><rect width="8.4" height="3.9" x="34.4" y="112.7" fill="#010000"/><rect width="4.2" height="18.7" x="38.6" y="116.6" fill="#010000"/><rect width="5.1" height="4.1" x="43.7" y="135.3" fill="#010000"/><rect width="4" height="5.4" x="48.8" y="139.5" fill="#010000"/><rect width="9" height="4.4" x="52.8" y="144.8" fill="#010000"/><rect width="4.8" height="13.6" x="52.8" y="149.2" fill="#010000"/><rect width="4.5" height="4.5" x="57.2" y="162.5" fill="#010000"/><rect width="9.2" height="5" x="61.6" y="166.9" fill="#010000"/><rect width="4.5" height="5.1" x="61.7" y="171.9" fill="#010000"/><rect width="5.4" height="18.2" x="56.3" y="177" fill="#010000"/><rect width="4" height="13.8" x="52.8" y="190.2" fill="#010000"/><rect width="14.2" height="4.1" x="52.8" y="199.8" fill="#010000"/><rect width="4.8" height="9.2" x="70.8" y="177" fill="#010000"/><rect width="4.2" height="14.6" x="66.6" y="185.3" fill="#010000"/><rect width="4.5" height="9.5" x="57.2" y="204" fill="#010000"/><rect width="17.8" height="4.8" x="57.2" y="208.7" fill="#010000"/><rect width="4.3" height="13.5" x="70.8" y="213.5" fill="#010000"/><rect width="14.2" height="4.5" x="70.8" y="222.4" fill="#010000"/><rect width="4.4" height="17.6" x="80.6" y="209.3" fill="#010000"/><rect width="18.2" height="4.1" x="80.6" y="209.3" fill="#010000"/><rect width="5.1" height="17.6" x="93.7" y="209.3" fill="#010000"/><rect width="14.3" height="4.5" x="93.7" y="222.4" fill="#010000"/><rect width="5.2" height="18.3" x="103.3" y="208.7" fill="#010000"/><rect width="13.9" height="4.8" x="103.3" y="208.7" fill="#010000"/><rect width="4.8" height="17.5" x="112.4" y="196" fill="#010000"/><rect width="14.1" height="3.9" x="108" y="196" fill="#010000"/><rect width="4.7" height="13.2" x="103.3" y="176.9" fill="#010000"/><rect width="3.4" height="13.5" x="108" y="186.3" fill="#010000"/><rect width="4.8" height="5" x="112.4" y="177" fill="#010000"/><rect width="4.3" height="15.7" x="117.8" y="181.3" fill="#010000"/><rect width="4.4" height="14.1" x="108" y="162.9" fill="#010000"/><rect width="11.8" height="5" x="110.3" y="162.9" fill="#010000"/><rect width="4" height="13.6" x="122.1" y="149.2" fill="#010000"/><rect width="9.6" height="5" x="112.4" y="144.3" fill="#010000"/><rect width="14.6" height="4.1" x="111.5" y="135.3" fill="#010000"/><rect width="4.3" height="4.8" x="117.8" y="139.5" fill="#010000"/><rect width="5.1" height="4.4" x="126.1" y="131.1" fill="#010000"/><rect width="5" height="4.3" x="131.2" y="126.8" fill="#010000"/><rect width="5" height="23.6" x="135.5" y="103.2" fill="#010000"/><rect width="5" height="3.3" x="131.2" y="99.4" fill="#010000"/><rect width="27.8" height="4.8" x="103.3" y="93.7" fill="#010000"/><rect width="14.1" height="4.7" x="89.3" y="98.5" fill="#010000"/><rect width="8.5" height="10.1" x="80.7" y="121" fill="#010000"/><rect width="5.6" height="4.3" x="88.5" y="126.8" fill="#010000"/><rect width="4.4" height="4.3" x="84.9" y="131.1" fill="#010000"/><rect width="13.7" height="4.3" x="99.1" y="126.8" fill="#010000"/><rect width="4.7" height="4.3" x="103.3" y="131.1" fill="#010000"/></g></g></svg>