<svg xmlns="http://www.w3.org/2000/svg" xmlns:xlink="http://www.w3.org/1999/xlink" x="0" y="0" enable-background="new 0 0 462.1 422.1" version="1.1" viewBox="0 0 462.1 422.1" xml:space="preserve"><g id="Réteg_4"><g><rect width="243" height="242" x="118.2" y="93.5" fill="#944529"/><rect width="34" height="222" x="96.2" y="113.5" fill="#944529"/><rect width="25" height="182" x="71.2" y="133.5" fill="#944529"/><rect width="28" height="202" x="354.2" y="113.5" fill="#944529"/><rect width="86" height="26" x="118.2" y="67.5" fill="#B36839"/><rect width="67" height="26" x="248.2" y="67.5" fill="#B36839"/><rect width="23.7" height="23" x="96.2" y="90.5" fill="#B36839"/><rect width="20" height="20" x="71.2" y="113.5" fill="#EC9002"/><rect width="23" height="86" x="382.2" y="224.5" fill="#EC9002"/><rect width="21" height="20" x="361.2" y="315.5" fill="#EC9002"/><rect width="200" height="22" x="161.2" y="335.5" fill="#F6C202"/><rect width="70" height="22" x="91.2" y="335.5" fill="#F6C202"/><rect width="25.8" height="25" x="71.2" y="310.5" fill="#F6C202"/><rect width="22" height="157.5" x="49.2" y="153.1" fill="#F6C202"/><rect width="44" height="133" x="204.2" y="224.5" fill="#F6C202"/><rect width="24" height="24" x="248.2" y="224.5" fill="#F6C202"/><rect width="20" height="24" x="184.2" y="224.5" fill="#F6C202"/><rect width="23" height="71.5" x="382.2" y="153.1" fill="#F6C202"/><rect width="22" height="45" x="272.2" y="179.5" fill="#F6C202"/><rect width="88" height="22.5" x="294.2" y="179.5" fill="#F6C202"/><rect width="201" height="22.8" x="71.2" y="179.5" fill="#F6C202"/><rect width="43.8" height="111.5" x="204.4" y="90.5" fill="#F6C202"/><rect width="44" height="28.6" x="204.2" y="67.5" fill="#F4E34A"/><rect width="22" height="19.5" x="49.2" y="133.5" fill="#EC9002"/><rect width="25" height="20" x="71.2" y="113.5" fill="#EC9002"/><rect width="23" height="91" x="382.2" y="224.5" fill="#EC9002"/><rect width="21" height="20" x="361.2" y="315.5" fill="#F6C202"/><rect width="26.9" height="22.5" x="157.3" y="202" fill="#F6C202"/><rect width="23" height="19.5" x="382.2" y="133.5" fill="#F4E34A"/><rect width="23" height="27.6" x="315.2" y="67.5" fill="#773825"/><rect width="21" height="66" x="361.2" y="113.5" fill="#773825"/><rect width="21" height="112.6" x="361.2" y="202.3" fill="#773825"/><rect width="113" height="25" x="248.2" y="310.5" fill="#773825"/><rect width="67" height="22.5" x="294.2" y="202" fill="#773825"/><rect width="43" height="24" x="272.2" y="224.5" fill="#773825"/><rect width="45.5" height="21.5" x="248.2" y="248.5" fill="#773825"/><rect width="20" height="21.5" x="184.2" y="248.5" fill="#773825"/><rect width="26.9" height="24" x="157.3" y="224.5" fill="#773825"/><rect width="86.1" height="22.2" x="71.2" y="202.3" fill="#773825"/><rect width="20" height="87.6" x="71.2" y="224.5" fill="#773825"/><rect width="30" height="23" x="338.2" y="90.5" fill="#773825"/><rect width="24" height="66" x="248.2" y="113.5" fill="#773825"/><rect width="90.2" height="26.5" x="270.9" y="153.1" fill="#773825"/><rect width="133" height="22" x="71.2" y="157.5" fill="#773825"/><rect width="88" height="22.5" x="184.2" y="202" fill="#181A1C"/></g></g></svg>