<svg xmlns="http://www.w3.org/2000/svg" xmlns:xlink="http://www.w3.org/1999/xlink" x="0" y="0" enable-background="new 0 0 370 338.1" version="1.1" viewBox="0 0 370 338.1" xml:space="preserve"><g id="Réteg_2"><g><rect width="47.3" height="117.2" x="109.1" y="82.2" fill="#C20314"/><rect width="27.7" height="94.4" x="85.7" y="93.5" fill="#C20314"/><rect width="18" height="42.1" x="67.7" y="114.9" fill="#C20314"/><rect width="30.5" height="162.4" x="161.9" y="105.9" fill="#C20314"/><rect width="21.1" height="20.8" x="120.8" y="198.4" fill="#C20314"/><rect width="28.7" height="23.4" x="133.2" y="204" fill="#C20314"/><rect width="27.3" height="18.7" x="142" y="227.4" fill="#C20314"/><rect width="21.7" height="29" x="188.4" y="231.2" fill="#C20314"/><rect width="34.5" height="14.6" x="197.1" y="222.1" fill="#C20314"/><rect width="21.1" height="9.8" x="205.4" y="236.7" fill="#C20314"/><rect width="29.4" height="81.4" x="155.4" y="110.2" fill="#C20314"/><rect width="72.6" height="82.6" x="212.2" y="99.2" fill="#C20314"/><rect width="52" height="125.2" x="191.3" y="102.2" fill="#C20314"/><rect width="31.7" height="28.1" x="231.7" y="175.9" fill="#C20314"/><rect width="15.4" height="7.8" x="263.4" y="180.1" fill="#C20314"/><rect width="11.9" height="64.3" x="280.8" y="102.2" fill="#C20314"/><rect width="14.7" height="54.2" x="286.8" y="105.9" fill="#C20314"/><rect width="46.1" height="31.1" x="215.3" y="82.2" fill="#C20314"/><rect width="29" height="8.6" x="257.8" y="93.5" fill="#C20314"/><rect width="20.1" height="23.4" x="185.3" y="213.3" fill="#C20314"/><rect width="21.6" height="28.6" x="131.4" y="187.1" fill="#C20314"/><rect width="23.3" height="26.3" x="195.4" y="91.9" fill="#C20314"/><rect width="45.1" height="17.2" x="158.2" y="97.7" fill="#C20314"/><rect width="38.7" height="35.2" x="142" y="184" fill="#C20314"/><rect width="16.5" height="11.1" x="150.2" y="240.2" fill="#C20314"/><rect width="14.1" height="16.2" x="177.1" y="262.3" fill="#C20314"/><rect width="10.7" height="7.3" x="284.8" y="157" fill="#C20314"/><rect width="8.7" height="11.1" x="286.8" y="102.2" fill="#C20314"/><rect width="19.8" height="23" x="150.2" y="91.9" fill="#C20314"/><rect width="8.7" height="6.4" x="188.4" y="267" fill="#C20314"/><rect width="12.7" height="12.8" x="248.7" y="93.5" fill="#FFF"/><rect width="11.3" height="46" x="261.4" y="106.3" fill="#FFF"/><rect width="12.5" height="24.7" x="272.3" y="118.2" fill="#FFF"/><rect width="12.7" height="14.2" x="248.7" y="152.3" fill="#FFF"/><rect width="13.5" height="14.1" x="238.4" y="175.9" fill="#FFF"/><rect width="12.4" height="11.9" x="214.2" y="106.3" fill="#E86B71"/><rect width="22.2" height="12.8" x="226.5" y="93.5" fill="#E86B71"/><rect width="10.3" height="9.5" x="238.4" y="166.5" fill="#E86B71"/><rect width="11.3" height="12" x="261.4" y="152.3" fill="#E86B71"/><rect width="12.7" height="46" x="248.7" y="106.3" fill="#E86B71"/><rect width="10.1" height="12.4" x="238.4" y="105.9" fill="#DC2F39"/><rect width="23.4" height="12.4" x="85.7" y="93.5" fill="#DC2F39"/><rect width="12" height="22.3" x="73.7" y="118.2" fill="#DC2F39"/><rect width="23.4" height="12.5" x="85.7" y="152.3" fill="#DC2F39"/><rect width="11.4" height="58.8" x="85.7" y="93.5" fill="#DC2F39"/><rect width="70.8" height="11.4" x="96.4" y="70.8" fill="#9E0018"/><rect width="23.4" height="11.4" x="155.9" y="82.2" fill="#9E0018"/><rect width="59.5" height="11.4" x="202" y="70.8" fill="#9E0018"/><rect width="34.4" height="11.4" x="167.5" y="93.5" fill="#9E0018"/><rect width="24" height="11.4" x="191.3" y="82.2" fill="#9E0018"/><rect width="35.4" height="11.4" x="73.7" y="82.2" fill="#9E0018"/><rect width="12" height="24.7" x="73.7" y="93.5" fill="#9E0018"/><rect width="12" height="58.5" x="61.7" y="105.9" fill="#9E0018"/><rect width="12" height="35.4" x="73.7" y="152.3" fill="#9E0018"/><rect width="34.1" height="11.4" x="261.4" y="82.2" fill="#9E0018"/><rect width="10.7" height="11.4" x="284.8" y="93.5" fill="#9E0018"/><rect width="12" height="59.5" x="295.5" y="104.9" fill="#9E0018"/><rect width="10.7" height="23.2" x="284.8" y="164.3" fill="#9E0018"/><rect width="12.1" height="24" x="272.7" y="175.9" fill="#9E0018"/><rect width="12.4" height="23.1" x="260.3" y="187.9" fill="#9E0018"/><rect width="11.6" height="22.6" x="248.7" y="199.5" fill="#9E0018"/><rect width="10.8" height="30.4" x="237.9" y="204" fill="#9E0018"/><rect width="11.3" height="24.5" x="226.5" y="222.1" fill="#9E0018"/><rect width="12.4" height="23.2" x="214.2" y="234.4" fill="#9E0018"/><rect width="11.6" height="24" x="202.6" y="246" fill="#9E0018"/><rect width="10.8" height="22.8" x="191.7" y="258" fill="#9E0018"/><rect width="14.1" height="23.2" x="178.3" y="270" fill="#9E0018"/><rect width="11.7" height="23.6" x="166.9" y="258" fill="#9E0018"/><rect width="11.5" height="23.5" x="155.4" y="246.6" fill="#9E0018"/><rect width="12.4" height="23.2" x="144" y="234.4" fill="#9E0018"/><rect width="11.4" height="23.5" x="85.7" y="175.9" fill="#9E0018"/><rect width="12.4" height="22.8" x="97.1" y="187.9" fill="#9E0018"/><rect width="11.3" height="22.7" x="109.5" y="199.3" fill="#9E0018"/><rect width="12.4" height="23.7" x="120.8" y="210.7" fill="#9E0018"/><rect width="11.9" height="24" x="132.2" y="222.6" fill="#9E0018"/></g></g></svg>