<svg xmlns="http://www.w3.org/2000/svg" xmlns:svg="http://www.w3.org/2000/svg" id="svg2" x="0" y="0" enable-background="new 0 0 525.1 558.8" version="1.1" viewBox="0 0 525.1 558.8" xml:space="preserve"><metadata id="metadata227"/><g id="Réteg_3" transform="matrix(-1,0,0,1,501.8,0)"><g id="g7"><rect id="rect9" width="36.8" height="18.6" x="94.4" y="235.5" style="fill:#7b6945"/><rect id="rect11" width="20.7" height="28.5" x="113.6" y="264.5" style="fill:#7b6945"/><rect id="rect13" width="19.2" height="28.7" x="94.4" y="254.1" style="fill:#7b6945"/><rect id="rect15" width="38.3" height="17.8" x="200.9" y="135.9" style="fill:#7b6945"/><rect id="rect17" width="34.5" height="21.5" x="274.5" y="136.1" style="fill:#7b6945"/><rect id="rect19" width="37.1" height="19.9" x="309" y="157.5" style="fill:#7b6945"/><rect id="rect21" width="35.3" height="29.9" x="239.3" y="146" style="fill:#7b6945"/><rect id="rect23" width="34.5" height="19.2" x="200.9" y="175.9" style="fill:#7b6945"/><rect id="rect25" width="41.2" height="19" x="164.9" y="195.1" style="fill:#7b6945"/><rect id="rect27" width="33.7" height="20.7" x="131.2" y="214.2" style="fill:#7b6945"/><rect id="rect29" width="35.3" height="19.2" x="239.3" y="195.1" style="fill:#7b6945"/><rect id="rect31" width="34.5" height="19.2" x="274.5" y="175.9" style="fill:#7b6945"/><rect id="rect33" width="70.5" height="19" x="164.9" y="234.9" style="fill:#7b6945"/><rect id="rect35" width="41.1" height="16.9" x="198.1" y="214.1" style="fill:#7b6945"/><rect id="rect37" width="33.7" height="18.2" x="131.2" y="254.1" style="fill:#7b6945"/><rect id="rect39" width="19.2" height="22.1" x="309" y="195.1" style="fill:#7b6945"/><rect id="rect41" width="34.3" height="31.5" x="326.8" y="214.2" style="fill:#7b6945"/><rect id="rect43" width="17.2" height="55.2" x="274.5" y="217.1" style="fill:#7b6945"/><rect id="rect45" width="52.1" height="18.4" x="256.9" y="235.5" style="fill:#7b6945"/><rect id="rect47" width="51.4" height="22.2" x="309" y="250.1" style="fill:#7b6945"/><rect id="rect49" width="21.1" height="20.7" x="200.9" y="272.3" style="fill:#7b6945"/><rect id="rect51" width="104.8" height="17.5" x="222" y="313" style="fill:#7b6945"/><rect id="rect53" width="19.9" height="25.7" x="235.4" y="293" style="fill:#7b6945"/><rect id="rect55" width="21.8" height="19.3" x="182.9" y="293" style="fill:#7b6945"/><rect id="rect57" width="65.1" height="107.6" x="258.4" y="347.1" style="fill:#7b6945"/><rect id="rect59" width="86.6" height="59.1" x="187.9" y="385" style="fill:#7b6945"/><rect id="rect61" width="15.7" height="16.1" x="122.4" y="459.3" style="fill:#7b6945"/><rect id="rect63" width="35" height="19.2" x="152.9" y="440.1" style="fill:#7b6945"/><rect id="rect65" width="33.1" height="15.7" x="206.1" y="439.1" style="fill:#7b6945"/><rect id="rect67" width="58.2" height="98.7" x="181" y="173.6" style="fill:#7b6945"/><rect id="rect69" width="58.2" height="98.7" x="255.4" y="157.5" style="fill:#7b6945"/><rect id="rect71" width="35.3" height="17.6" x="239.3" y="136.1" style="fill:#f7dca2"/><rect id="rect73" width="19.2" height="21.5" x="309" y="136.1" style="fill:#f7dca2"/><rect id="rect75" width="58.2" height="19.9" x="181" y="153.7" style="fill:#f7dca2"/><rect id="rect77" width="36" height="19.2" x="164.9" y="175.9" style="fill:#f7dca2"/><rect id="rect79" width="38.3" height="16.7" x="75.3" y="275.4" style="fill:#f7dca2"/><rect id="rect81" width="17.6" height="18.4" x="113.6" y="254.1" style="fill:#f7dca2"/><rect id="rect83" width="33.7" height="19.2" x="131.2" y="234.9" style="fill:#f7dca2"/><rect id="rect85" width="36" height="20.7" x="164.9" y="214.2" style="fill:#f7dca2"/><rect id="rect87" width="38.3" height="19.2" x="200.9" y="195.1" style="fill:#f7dca2"/><rect id="rect89" width="34.5" height="18.4" x="274.5" y="157.5" style="fill:#f7dca2"/><rect id="rect91" width="39.1" height="19.2" x="235.4" y="175.9" style="fill:#f7dca2"/><rect id="rect93" width="34.3" height="19.2" x="326.8" y="195.1" style="fill:#f7dca2"/><rect id="rect95" width="52.1" height="19.2" x="309" y="175.9" style="fill:#f7dca2"/><rect id="rect97" width="34.5" height="22.1" x="274.5" y="195.1" style="fill:#f7dca2"/><rect id="rect99" width="15.3" height="19.2" x="345.8" y="234.7" style="fill:#f7dca2"/><rect id="rect101" width="19.2" height="36.8" x="309" y="217.1" style="fill:#f7dca2"/><rect id="rect103" width="17.2" height="18.4" x="291.8" y="217.1" style="fill:#f7dca2"/><rect id="rect105" width="35.3" height="21.6" x="239.3" y="213.2" style="fill:#f7dca2"/><rect id="rect107" width="13" height="26.1" x="187.9" y="272.3" style="fill:#f7dca2"/><rect id="rect109" width="57.1" height="18.2" x="164.9" y="254.1" style="fill:#f7dca2"/><rect id="rect111" width="17.2" height="18.2" x="291.8" y="254.1" style="fill:#f7dca2"/><rect id="rect113" width="35.3" height="18.2" x="239.3" y="254.1" style="fill:#f7dca2"/><rect id="rect115" width="17.2" height="37.1" x="204.8" y="293" style="fill:#f7dca2"/><rect id="rect117" width="17.2" height="40.7" x="222" y="272.3" style="fill:#f7dca2"/><rect id="rect119" width="16.1" height="20.7" x="239.3" y="272.3" style="fill:#f7dca2"/><rect id="rect121" width="13.8" height="47.2" x="328.2" y="272.3" style="fill:#f7dca2"/><rect id="rect123" width="72.8" height="30.1" x="255.4" y="293" style="fill:#f7dca2"/><rect id="rect125" width="13.8" height="14.6" x="361.1" y="403.4" style="fill:#f7dca2"/><rect id="rect127" width="16.9" height="56.3" x="374.9" y="347.1" style="fill:#f7dca2"/><rect id="rect129" width="16.9" height="16.9" x="374.9" y="417.9" style="fill:#f7dca2"/><rect id="rect131" width="48.1" height="18.9" x="326.8" y="347.1" style="fill:#f7dca2"/><rect id="rect133" width="52.9" height="16.1" x="138.1" y="459.3" style="fill:#f7dca2"/><rect id="rect135" width="22.2" height="19.2" x="187.9" y="440.1" style="fill:#f7dca2"/><rect id="rect137" width="16.9" height="36.8" x="187.9" y="385" style="fill:#f7dca2"/><rect id="rect139" width="17.2" height="18.4" x="222" y="385" style="fill:#f7dca2"/><rect id="rect141" width="17.2" height="17" x="222" y="421.7" style="fill:#f7dca2"/><rect id="rect143" width="35.3" height="18.4" x="239.3" y="403.4" style="fill:#f7dca2"/><rect id="rect145" width="52.3" height="16.6" x="274.5" y="330.5" style="fill:#f7dca2"/><rect id="rect147" width="34.5" height="18.9" x="274.5" y="347.1" style="fill:#f7dca2"/><rect id="rect149" width="49" height="19.6" x="274.5" y="417.9" style="fill:#f7dca2"/><path id="path151" d="m 301.7,417.9 -2.7,0 c -4,0 -7.3,-3.3 -7.3,-7.3 l 0,0 c 0,-4 3.3,-7.3 7.3,-7.3 l 2.7,0 c 4,0 7.3,3.3 7.3,7.3 l 0,0 c 0,4.1 -3.3,7.3 -7.3,7.3 z" style="fill:#f7dca2"/><rect id="rect153" width="35.1" height="15.3" x="291.8" y="366.6" style="fill:#f7dca2"/><rect id="rect155" width="16.1" height="18.4" x="258.4" y="366.6" style="fill:#f7dca2"/><rect id="rect157" width="17.2" height="18.4" x="204.8" y="403.4" style="fill:#f7dca2"/><rect id="rect159" width="17.2" height="18.4" x="274.5" y="385" style="fill:#f7dca2"/><rect id="rect161" width="17.2" height="18.4" x="291.8" y="399.5" style="fill:#f7dca2"/><rect id="rect163" width="14.6" height="18.4" x="309" y="385" style="fill:#f7dca2"/><rect id="rect165" width="66.3" height="19.5" x="173" y="347.1" style="fill:#f7dca2"/><rect id="rect167" width="127.2" height="23" x="200.9" y="112.9" stroke-miterlimit="10" style="stroke:#000;stroke-width:2;stroke-miterlimit:10"/><rect id="rect169" width="19.9" height="17.6" x="181" y="135.9" stroke-miterlimit="10" style="stroke:#000;stroke-width:2;stroke-miterlimit:10"/><rect id="rect171" width="17.6" height="21.5" x="328.2" y="135.9" stroke-miterlimit="10" style="stroke:#000;stroke-width:2;stroke-miterlimit:10"/><rect id="rect173" width="18.4" height="18.4" x="345.8" y="157.3" stroke-miterlimit="10" style="stroke:#000;stroke-width:2;stroke-miterlimit:10"/><rect id="rect175" width="16.1" height="22.2" x="164.9" y="153.5" stroke-miterlimit="10" style="stroke:#000;stroke-width:2;stroke-miterlimit:10"/><rect id="rect177" width="16.9" height="38.3" x="148.1" y="175.7" stroke-miterlimit="10" style="stroke:#000;stroke-width:2;stroke-miterlimit:10"/><rect id="rect179" width="19.9" height="96.6" x="361.1" y="175.7" stroke-miterlimit="10" style="stroke:#000;stroke-width:2;stroke-miterlimit:10"/><rect id="rect181" width="17.6" height="19.2" x="328.2" y="234.7" stroke-miterlimit="10" style="stroke:#000;stroke-width:2;stroke-miterlimit:10"/><rect id="rect183" width="16.1" height="19.2" x="239.3" y="234.7" stroke-miterlimit="10" style="stroke:#000;stroke-width:2;stroke-miterlimit:10"/><rect id="rect185" width="72.8" height="20.7" x="255.4" y="272.3" stroke-miterlimit="10" style="stroke:#000;stroke-width:2;stroke-miterlimit:10"/><rect id="rect187" width="23" height="39.2" x="164.9" y="272.3" stroke-miterlimit="10" style="stroke:#000;stroke-width:2;stroke-miterlimit:10"/><rect id="rect189" width="20.1" height="19.5" x="152.9" y="347.1" stroke-miterlimit="10" style="stroke:#000;stroke-width:2;stroke-miterlimit:10"/><rect id="rect191" width="19.2" height="39.2" x="342" y="272.3" stroke-miterlimit="10" style="stroke:#000;stroke-width:2;stroke-miterlimit:10"/><rect id="rect193" width="16.9" height="17.5" x="187.9" y="313" stroke-miterlimit="10" style="stroke:#000;stroke-width:2;stroke-miterlimit:10"/><rect id="rect195" width="105" height="16.6" x="169.5" y="330.5" stroke-miterlimit="10" style="stroke:#000;stroke-width:2;stroke-miterlimit:10"/><rect id="rect197" width="19.2" height="37.9" x="239.3" y="347.1" stroke-miterlimit="10" style="stroke:#000;stroke-width:2;stroke-miterlimit:10"/><rect id="rect199" width="18.4" height="73.6" x="169.5" y="366.6" stroke-miterlimit="10" style="stroke:#000;stroke-width:2;stroke-miterlimit:10"/><rect id="rect201" width="51.3" height="18.4" x="187.9" y="366.6" stroke-miterlimit="10" style="stroke:#000;stroke-width:2;stroke-miterlimit:10"/><rect id="rect203" width="18.9" height="34.1" x="326.8" y="313" stroke-miterlimit="10" style="stroke:#000;stroke-width:2;stroke-miterlimit:10"/><rect id="rect205" width="17.8" height="18.9" x="309" y="347.1" stroke-miterlimit="10" style="stroke:#000;stroke-width:2;stroke-miterlimit:10"/><rect id="rect207" width="15.2" height="58.2" x="391.8" y="326.7" stroke-miterlimit="10" style="stroke:#000;stroke-width:2;stroke-miterlimit:10"/><rect id="rect209" width="18.5" height="20.4" x="407" y="326.7" stroke-miterlimit="10" style="stroke:#000;stroke-width:2;stroke-miterlimit:10"/><rect id="rect211" width="46" height="20.4" x="345.8" y="326.7" stroke-miterlimit="10" style="stroke:#000;stroke-width:2;stroke-miterlimit:10"/><rect id="rect213" width="48.1" height="18.9" x="326.8" y="366" stroke-miterlimit="10" style="stroke:#000;stroke-width:2;stroke-miterlimit:10"/><rect id="rect215" width="18.4" height="86.6" x="323.6" y="385" stroke-miterlimit="10" style="stroke:#000;stroke-width:2;stroke-miterlimit:10"/><rect id="rect217" width="49" height="16.9" x="274.5" y="454.7" stroke-miterlimit="10" style="stroke:#000;stroke-width:2;stroke-miterlimit:10"/><rect id="rect219" width="35.3" height="15.9" x="239.3" y="438.8" stroke-miterlimit="10" style="stroke:#000;stroke-width:2;stroke-miterlimit:10"/><rect id="rect221" width="39.1" height="16.9" x="204.8" y="454.7" style="fill:#7b6945"/></g></g></svg>