<svg xmlns="http://www.w3.org/2000/svg" xmlns:xlink="http://www.w3.org/1999/xlink" x="0" y="0" enable-background="new 0 0 589.7 575.1" version="1.1" viewBox="0 0 589.7 575.1" xml:space="preserve"><g id="Réteg_2"><g><g><rect width="17" height="26.6" x="116" y="52.8" fill="#FFCC6D"/><rect width="12.5" height="34.3" x="103.2" y="68.6" fill="#FFCC6D"/><rect width="8.3" height="17.1" x="116" y="94.4" fill="#FFCC6D"/><rect width="8.4" height="25.7" x="91.1" y="103" fill="#FFCC6D"/><rect width="8.6" height="16.8" x="99.1" y="111.9" fill="#FFCC6D"/><rect width="8.2" height="16.5" x="107.8" y="120.3" fill="#FFCC6D"/><rect width="8" height="17.3" x="91.1" y="145.5" fill="#FFCC6D"/><rect width="8.9" height="17.5" x="98.9" y="153" fill="#FFCC6D"/><rect width="23.5" height="8.5" x="184.5" y="94.4" fill="#FFCC6D"/><rect width="8.2" height="25.6" x="226" y="60.6" fill="#FFCC6D"/><rect width="7.7" height="16.8" x="251.1" y="86.2" fill="#FFCC6D"/><rect width="34.8" height="9.1" x="258.9" y="93.9" fill="#FFCC6D"/><rect width="24.9" height="8.7" x="285.1" y="103.1" fill="#FFCC6D"/><rect width="17" height="9.7" x="183.6" y="297.3" fill="#FFCC6D"/><rect width="9.3" height="8" x="251.1" y="323.9" fill="#FFCC6D"/><rect width="8.2" height="16.5" x="437.5" y="78" fill="#FFCC6D"/><rect width="42.4" height="26.1" x="445.7" y="60.6" fill="#FFCC6D"/><rect width="8.5" height="16.4" x="454.2" y="44.2" fill="#FFCC6D"/><rect width="17.1" height="7.9" x="462.8" y="52.8" fill="#FFCC6D"/><rect width="30.3" height="37.8" x="471.3" y="73.7" fill="#FFCC6D"/><rect width="16.7" height="8.6" x="471.3" y="111.5" fill="#FFCC6D"/><rect width="8.5" height="16.7" x="471.3" y="120.1" fill="#FFCC6D"/><rect width="11" height="26.8" x="463.1" y="128.7" fill="#FFCC6D"/><rect width="8.4" height="25.5" x="454.4" y="137.3" fill="#FFCC6D"/><rect width="11.3" height="18.3" x="442.9" y="152.9" fill="#FFCC6D"/><rect width="17.1" height="34.8" x="496.9" y="120.1" fill="#FFCC6D"/><rect width="9.3" height="8.7" x="487.7" y="136.8" fill="#FFCC6D"/><rect width="17.1" height="8.6" x="488.4" y="154.1" fill="#FFCC6D"/><rect width="8.5" height="16.7" x="488.4" y="162.8" fill="#FFCC6D"/><rect width="12.8" height="19.1" x="479.7" y="168.9" fill="#FFCC6D"/><rect width="8.9" height="17.1" x="471" y="179.5" fill="#FFCC6D"/><rect width="14" height="17.8" x="461.3" y="187" fill="#FFCC6D"/><rect width="8.4" height="8.4" x="454.4" y="204.9" fill="#FFCC6D"/><rect width="8.2" height="24.8" x="514" y="196.4" fill="#FFCC6D"/><rect width="8.5" height="33.8" x="505.5" y="179.5" fill="#FFCC6D"/><rect width="25.6" height="17.1" x="479.9" y="204.8" fill="#FFCC6D"/><rect width="17.1" height="8.2" x="488.4" y="196.6" fill="#FFCC6D"/><rect width="8.5" height="7.9" x="496.9" y="188.7" fill="#FFCC6D"/><rect width="7.7" height="18.1" x="472" y="213.3" fill="#FFCC6D"/><rect width="9.2" height="18.5" x="462.8" y="220.3" fill="#FFCC6D"/><rect width="16.7" height="20.9" x="505.5" y="246.5" fill="#FFCC6D"/><rect width="25.6" height="17.1" x="488.4" y="255.7" fill="#FFCC6D"/><rect width="25.6" height="17.1" x="479.9" y="264.2" fill="#FFCC6D"/><rect width="25.6" height="16.7" x="471.3" y="272.8" fill="#FFCC6D"/><rect width="21" height="9.1" x="454.4" y="273" fill="#FFCC6D"/><rect width="17.4" height="10.8" x="445.7" y="279" fill="#FFCC6D"/><rect width="17.4" height="17.4" x="488.1" y="297.7" fill="#FFCC6D"/><rect width="16.7" height="26.1" x="463.1" y="297.7" fill="#FFCC6D"/><rect width="26.6" height="26.4" x="471.5" y="306.9" fill="#FFCC6D"/><rect width="26.7" height="8.5" x="438.2" y="306.3" fill="#FFCC6D"/><rect width="18.6" height="9" x="395.5" y="331.9" fill="#FFCC6D"/><rect width="26" height="8.7" x="403.9" y="340.9" fill="#FFCC6D"/><rect width="59" height="8.7" x="420.6" y="348.3" fill="#FFCC6D"/><rect width="42.2" height="8.7" x="429.7" y="357.1" fill="#FFCC6D"/><rect width="16.9" height="9.9" x="446.2" y="364.2" fill="#FFCC6D"/><rect width="10.6" height="27.8" x="377.1" y="348" fill="#FFCC6D"/><rect width="8.9" height="18.9" x="386.6" y="363.7" fill="#FFCC6D"/><rect width="17" height="11.5" x="395.5" y="371.1" fill="#FFCC6D"/><rect width="16.6" height="8.5" x="404" y="382.6" fill="#FFCC6D"/><rect width="8.7" height="16.8" x="174.8" y="340.7" fill="#FFCC6D"/><rect width="8.1" height="9.2" x="166.7" y="348.3" fill="#FFCC6D"/><rect width="9" height="16.6" x="183.6" y="391.2" fill="#FFCC6D"/><rect width="8.5" height="26.2" x="192.1" y="398.9" fill="#FFCC6D"/><rect width="16.7" height="25.8" x="200.6" y="416.6" fill="#FFCC6D"/><rect width="16.6" height="25.5" x="209.5" y="391.2" fill="#FFCC6D"/><rect width="8.1" height="54.5" x="234.4" y="404.1" fill="#FFCC6D"/><rect width="25.1" height="51.2" x="226" y="407.7" fill="#FFCC6D"/><rect width="16.6" height="24.6" x="251.1" y="442.4" fill="#FFCC6D"/><rect width="28" height="23.6" x="274.1" y="455.5" fill="#FFCC6D"/><rect width="19.8" height="8.5" x="260.5" y="458.5" fill="#FFCC6D"/><rect width="8.3" height="25.3" x="302.2" y="442" fill="#FFCC6D"/><rect width="10.6" height="16.9" x="308" y="433.3" fill="#FFCC6D"/><rect width="18" height="11.6" x="342.5" y="365.3" fill="#FFCC6D"/><rect width="16.8" height="42" x="353" y="365.5" fill="#FFCC6D"/><rect width="8.5" height="16.2" x="369.7" y="391.3" fill="#FFCC6D"/><rect width="8.4" height="7.6" x="378.2" y="399.9" fill="#FFCC6D"/><rect width="16.6" height="15.2" x="116" y="79.4" fill="#C5831E"/><rect width="17.1" height="34.4" x="124.5" y="85.7" fill="#C5831E"/><rect width="10.7" height="16" x="138.7" y="95.5" fill="#C5831E"/><rect width="10.3" height="8" x="98.5" y="128.8" fill="#C5831E"/><rect width="8.3" height="24.4" x="116.1" y="129.7" fill="#C5831E"/><rect width="8.2" height="7.4" x="107.8" y="136.8" fill="#C5831E"/><rect width="9.4" height="18.1" x="107.8" y="153.3" fill="#C5831E"/><rect width="8.9" height="9.3" x="98.9" y="170.4" fill="#C5831E"/><rect width="25.6" height="42" x="445.7" y="86.7" fill="#C5831E"/><rect width="28.8" height="44" x="434" y="93.3" fill="#C5831E"/><rect width="25.3" height="41.5" x="429" y="111.9" fill="#C5831E"/><rect width="25.6" height="18.1" x="420.6" y="136.8" fill="#C5831E"/><rect width="16.5" height="19.1" x="429.2" y="152" fill="#C5831E"/><rect width="8.7" height="38.4" x="437.5" y="166.5" fill="#C5831E"/><rect width="17.1" height="8.3" x="479.9" y="145.7" fill="#C5831E"/><rect width="19.4" height="17.3" x="471.1" y="153.3" fill="#C5831E"/><rect width="16.7" height="10.7" x="463.1" y="168.8" fill="#C5831E"/><rect width="17.1" height="8.5" x="454.2" y="179.5" fill="#C5831E"/><rect width="24.6" height="20.7" x="438.2" y="184.2" fill="#C5831E"/><rect width="11" height="34.5" x="443.2" y="196.8" fill="#C5831E"/><rect width="8.4" height="49.8" x="454.4" y="217.2" fill="#C5831E"/><rect width="18.7" height="25.3" x="461.2" y="238.9" fill="#C5831E"/><rect width="24.9" height="15.9" x="472" y="231.4" fill="#C5831E"/><rect width="8.9" height="9.2" x="479.5" y="246.5" fill="#C5831E"/><rect width="25.6" height="17.1" x="479.9" y="221.9" fill="#C5831E"/><rect width="8.4" height="19.4" x="505.5" y="213.1" fill="#C5831E"/><rect width="8.2" height="8.2" x="463.1" y="281.3" fill="#C5831E"/><rect width="42.4" height="8.2" x="445.7" y="289.5" fill="#C5831E"/><rect width="25.6" height="8.5" x="420.6" y="297.7" fill="#C5831E"/><rect width="34.2" height="8.5" x="445.7" y="331.9" fill="#C5831E"/><rect width="84.9" height="9.6" x="386.6" y="323.9" fill="#C5831E"/><rect width="65" height="13.2" x="400.2" y="312.7" fill="#C5831E"/><rect width="28.6" height="10.5" x="412.2" y="304.3" fill="#C5831E"/><rect width="25.7" height="9" x="369.8" y="331.9" fill="#C5831E"/><rect width="7.6" height="8.9" x="413" y="331.9" fill="#C5831E"/><rect width="25.6" height="9.5" x="420.6" y="364.6" fill="#C5831E"/><rect width="25.5" height="11.1" x="404.4" y="357.1" fill="#C5831E"/><rect width="25.1" height="8.3" x="395.5" y="348.9" fill="#C5831E"/><rect width="51.7" height="8.5" x="353" y="340.4" fill="#C5831E"/><rect width="35.3" height="17.4" x="342.7" y="348.3" fill="#C5831E"/><rect width="6.1" height="38.3" x="336.5" y="353" fill="#C5831E"/><rect width="8.4" height="11.7" x="328.2" y="363.6" fill="#C5831E"/><rect width="11.1" height="24.8" x="341.9" y="375.1" fill="#C5831E"/><rect width="17.6" height="8.5" x="386.5" y="382.6" fill="#C5831E"/><rect width="8.2" height="16.9" x="369.8" y="365.8" fill="#C5831E"/><rect width="8.5" height="7.6" x="378" y="375.1" fill="#C5831E"/><rect width="10.3" height="33.1" x="317.8" y="391.3" fill="#C5831E"/><rect width="8.2" height="16.6" x="310.4" y="416.6" fill="#C5831E"/><rect width="11" height="50.3" x="242.7" y="374.1" fill="#C5831E"/><rect width="11.1" height="25.1" x="232.9" y="382.6" fill="#C5831E"/><rect width="9.3" height="9" x="251.1" y="314.8" fill="#C5831E"/><rect width="16.9" height="24.4" x="234.2" y="323.9" fill="#C5831E"/><rect width="18" height="16.4" x="226" y="340.9" fill="#C5831E"/><rect width="17" height="24.8" x="217.3" y="349.6" fill="#C5831E"/><rect width="17.1" height="17.1" x="209" y="374.1" fill="#C5831E"/><rect width="18" height="9.6" x="191.4" y="389.6" fill="#C5831E"/><rect width="8.9" height="18.3" x="200.6" y="398.3" fill="#FFAC00"/><rect width="10.7" height="17.5" x="200.6" y="297.3" fill="#FFAC00"/><rect width="19.2" height="7.9" x="206.7" y="306.9" fill="#FFAC00"/><rect width="13.3" height="17.1" x="212.7" y="314.8" fill="#FFAC00"/><rect width="16.8" height="6.6" x="166.7" y="357.5" fill="#FFAC00"/><rect width="17" height="27.2" x="183.6" y="349.6" fill="#FFAC00"/><rect width="8.6" height="18.8" x="208.6" y="60.6" fill="#FFAC00"/><rect width="8.2" height="7.9" x="226" y="52.8" fill="#FFAC00"/><rect width="7.7" height="17" x="251.1" y="60.6" fill="#FFAC00"/><rect width="8.2" height="42.3" x="234.2" y="60.6" fill="#FFAC00"/><rect width="16.9" height="25.5" x="217.3" y="86" fill="#FFAC00"/><rect width="13" height="16.5" x="171.5" y="103.5" fill="#FFAC00"/><rect width="25.6" height="9" x="183" y="102.9" fill="#FFAC00"/><rect width="13.3" height="12.7" x="174.8" y="126" fill="#FFAC00"/><rect width="34" height="8.9" x="251.1" y="103" fill="#FFAC00"/><rect width="8.5" height="24.9" x="310.1" y="111.9" fill="#FFAC00"/><rect width="16.7" height="16.8" x="293.7" y="111.5" fill="#FFAC00"/><rect width="27.5" height="8.4" x="268.1" y="111.5" fill="#FFAC00"/><rect width="10.7" height="9.4" x="191.2" y="77.6" fill="#014E6E"/><rect width="50.7" height="9.4" x="293.7" y="77.6" fill="#014E6E"/><rect width="42.5" height="8.6" x="327.2" y="120.1" fill="#014E6E"/><rect width="42" height="9.7" x="336.4" y="127.8" fill="#014E6E"/><rect width="10.7" height="27.2" x="149.5" y="136.9" fill="#014E6E"/><rect width="9.4" height="24.6" x="141.7" y="188.7" fill="#014E6E"/><rect width="11.4" height="16.6" x="132.7" y="196.8" fill="#014E6E"/><rect width="41.7" height="17.6" x="336.5" y="171.1" fill="#014E6E"/><rect width="8.4" height="8.6" x="378.2" y="171.1" fill="#014E6E"/><rect width="7.8" height="8" x="141.7" y="188.7" fill="#014E6E"/><rect width="17" height="16.6" x="132.7" y="196.8" fill="#014E6E"/><rect width="33.6" height="16.6" x="124.5" y="238.9" fill="#014E6E"/><rect width="51.5" height="17.4" x="124.4" y="289.5" fill="#014E6E"/><rect width="18.4" height="19.5" x="215.8" y="278.3" fill="#014E6E"/><rect width="9.8" height="8.7" x="234.2" y="289" fill="#014E6E"/><rect width="8.2" height="11" x="226" y="295.9" fill="#014E6E"/><rect width="16.1" height="17.5" x="192.6" y="323.2" fill="#014E6E"/><rect width="16.7" height="17.6" x="200.6" y="332" fill="#014E6E"/><rect width="20.2" height="17.7" x="139.9" y="331.9" fill="#014E6E"/><rect width="10.8" height="10.9" x="133.2" y="331.9" fill="#014E6E"/><rect width="25.8" height="8.5" x="141" y="382.6" fill="#014E6E"/><rect width="11.9" height="25.8" x="141" y="424.4" fill="#014E6E"/><rect width="7.6" height="16.6" x="260.5" y="407.8" fill="#014E6E"/><rect width="17.4" height="9" x="268.1" y="416.1" fill="#014E6E"/><rect width="25" height="9" x="260.5" y="373.6" fill="#014E6E"/><rect width="34.1" height="16.6" x="268.1" y="323.8" fill="#014E6E"/><rect width="8.4" height="7.7" x="302.2" y="323.8" fill="#014E6E"/><rect width="59.6" height="17.2" x="318.6" y="272.3" fill="#014E6E"/><rect width="29.6" height="15.2" x="292.2" y="277.2" fill="#014E6E"/><rect width="17" height="8.4" x="378.2" y="272.3" fill="#014E6E"/><rect width="59.6" height="17.5" x="327.2" y="221.9" fill="#014E6E"/><rect width="19.7" height="9.2" x="384.6" y="221.2" fill="#014E6E"/><rect width="0" height="0" x="378.2" y="188.7" fill="#008BC8"/><rect width="14.2" height="11.3" x="181.6" y="143.6" fill="#008BC8"/><rect width="16.6" height="16.7" x="264.3" y="141.6" fill="#008BC8"/><rect width="8.2" height="25.5" x="141.2" y="136.9" fill="#008BC8"/><rect width="8.2" height="8.7" x="133" y="153.7" fill="#008BC8"/><rect width="8.5" height="8.4" x="116" y="196.4" fill="#008BC8"/><rect width="17.3" height="8" x="124.4" y="188.7" fill="#008BC8"/><rect width="8.1" height="16.9" x="124.5" y="196.4" fill="#008BC8"/><rect width="8.5" height="16.6" x="116.1" y="238.9" fill="#008BC8"/><rect width="16.6" height="9.1" x="99.5" y="246.5" fill="#008BC8"/><rect width="8.4" height="8.7" x="99.5" y="255.5" fill="#008BC8"/><rect width="23.7" height="16.8" x="192.6" y="272.3" fill="#008BC8"/><rect width="8.4" height="8.1" x="200.6" y="264.2" fill="#008BC8"/><rect width="9.8" height="8.7" x="216.3" y="272.3" fill="#008BC8"/><rect width="17.7" height="16.4" x="174.8" y="315.1" fill="#008BC8"/><rect width="24.3" height="8.9" x="268.1" y="424.4" fill="#008BC8"/><rect width="10.7" height="9" x="285.5" y="416.1" fill="#008BC8"/><rect width="25" height="9" x="285.5" y="373.6" fill="#008BC8"/><rect width="26" height="8.9" x="302.2" y="331.5" fill="#008BC8"/><rect width="42.4" height="8.1" x="310.6" y="323.8" fill="#008BC8"/><rect width="42.9" height="17.2" x="395.2" y="272.3" fill="#008BC8"/><rect width="17" height="8.9" x="378.2" y="280.7" fill="#008BC8"/><rect width="28.4" height="17.7" x="404.4" y="221.2" fill="#008BC8"/><rect width="23.4" height="8.5" x="384.6" y="230.4" fill="#008BC8"/><rect width="8.8" height="7.4" x="429.4" y="231.5" fill="#008BC8"/><rect width="25.6" height="17.6" x="386.6" y="171.1" fill="#008BC8"/><rect width="8.4" height="8.4" x="412.2" y="171.1" fill="#008BC8"/><rect width="8.4" height="9" x="378.2" y="179.7" fill="#008BC8"/><rect width="25.8" height="8.2" x="369.7" y="120.1" fill="#008BC8"/><rect width="27.9" height="12.3" x="378.4" y="124.9" fill="#008BC8"/><rect width="21.3" height="13.3" x="344.4" y="73.7" fill="#A6A9AC"/><rect width="17.1" height="16.4" x="268.1" y="52.8" fill="#A6A9AC"/><rect width="8.5" height="7.7" x="285.1" y="60.9" fill="#A6A9AC"/><rect width="17.9" height="8.6" x="344.4" y="77.6" fill="#A6A9AC"/><rect width="26.2" height="18.6" x="327.2" y="93.1" fill="#A6A9AC"/><rect width="33.6" height="19.2" x="336.4" y="143.6" fill="#A6A9AC"/><rect width="41.2" height="16.7" x="336.5" y="196.6" fill="#A6A9AC"/><rect width="11" height="10.8" x="327.2" y="203.2" fill="#A6A9AC"/><rect width="9" height="8.4" x="377.7" y="204.9" fill="#A6A9AC"/><rect width="8.8" height="8.5" x="420.6" y="188" fill="#A6A9AC"/><rect width="68" height="19.3" x="318.6" y="246.5" fill="#A6A9AC"/><rect width="11.8" height="10.9" x="394.5" y="297.3" fill="#A6A9AC"/><rect width="42.5" height="19.4" x="276.6" y="297.7" fill="#A6A9AC"/><rect width="8.5" height="9.1" x="268.1" y="306" fill="#A6A9AC"/><rect width="24.6" height="17.8" x="260.5" y="348.3" fill="#A6A9AC"/><rect width="8.2" height="16.6" x="294.3" y="391.2" fill="#A6A9AC"/><rect width="7.6" height="16.7" x="260.5" y="391.2" fill="#A6A9AC"/><rect width="25.8" height="8.7" x="268.1" y="441.5" fill="#A6A9AC"/><rect width="19.2" height="8.8" x="141" y="398.9" fill="#A6A9AC"/><rect width="10" height="17" x="141" y="407.8" fill="#A6A9AC"/><rect width="10" height="10.2" x="141" y="357.3" fill="#A6A9AC"/><rect width="17.4" height="12.8" x="149.4" y="313.3" fill="#A6A9AC"/><rect width="25.8" height="17.9" x="141" y="263.6" fill="#A6A9AC"/><rect width="8.4" height="9.2" x="166.7" y="272.3" fill="#A6A9AC"/><rect width="19.7" height="9" x="124.4" y="272.5" fill="#A6A9AC"/><rect width="17.7" height="10.9" x="133.2" y="221.9" fill="#A6A9AC"/><rect width="25.7" height="9.5" x="124.4" y="170.4" fill="#A6A9AC"/><rect width="45.6" height="17.4" x="209.4" y="119.9" fill="#925E18"/><rect width="10.2" height="11.3" x="215.8" y="134.2" fill="#925E18"/><rect width="9" height="9.4" x="226" y="145.5" fill="#925E18"/><rect width="18.9" height="51.1" x="200.4" y="145.5" fill="#925E18"/><rect width="11.6" height="25.3" x="217.7" y="171" fill="#925E18"/><rect width="8.3" height="9.7" x="226" y="162.8" fill="#925E18"/><rect width="25.1" height="42.4" x="226" y="188" fill="#925E18"/><rect width="16.5" height="17" x="244" y="171.1" fill="#925E18"/><rect width="33.9" height="45.1" x="234.2" y="221.9" fill="#925E18"/><rect width="54.8" height="20.5" x="183.6" y="238.9" fill="#925E18"/><rect width="16.6" height="64.9" x="264.3" y="194.6" fill="#925E18"/><rect width="8.8" height="8.8" x="302" y="162.8" fill="#925E18"/><rect width="23.8" height="18.7" x="272.8" y="179.9" fill="#925E18"/><rect width="43.3" height="62.2" x="121.7" y="451" fill="#925E18"/><rect width="22" height="35.5" x="154.7" y="431.5" fill="#925E18"/><rect width="39.8" height="47.3" x="95.8" y="475" fill="#925E18"/><rect width="23.6" height="29.3" x="79.6" y="493" fill="#925E18"/><rect width="106.4" height="33.3" x="290.8" y="496.1" fill="#925E18"/><rect width="92.6" height="15" x="298.4" y="488.6" fill="#925E18"/><rect width="63.7" height="19.4" x="315.2" y="476.7" fill="#925E18"/><rect width="17" height="27.4" x="336" y="450.2" fill="#925E18"/><rect width="12.2" height="20.3" x="361.7" y="458.8" fill="#925E18"/><rect width="30.6" height="20.9" x="369.8" y="442.4" fill="#925E18"/><rect width="22.2" height="29.3" x="378.2" y="418.3" fill="#925E18"/><rect width="27.4" height="17.8" x="361.4" y="415.6" fill="#925E18"/><rect width="8.9" height="26.6" x="352.8" y="424.4" fill="#925E18"/><rect width="28.4" height="48.8" x="429.7" y="404.1" fill="#925E18"/><rect width="38.3" height="12.3" x="411.8" y="451.1" fill="#925E18"/><rect width="12.1" height="16.8" x="420.6" y="458.5" fill="#925E18"/><rect width="46.8" height="22" x="496.9" y="483.4" fill="#925E18"/><rect width="29.7" height="29.8" x="505.4" y="442" fill="#925E18"/><rect width="17.2" height="54.7" x="479.6" y="378.9" fill="#925E18"/><rect width="8.6" height="38.6" x="496.8" y="370.2" fill="#925E18"/><rect width="18.4" height="20.5" x="505.3" y="370.8" fill="#925E18"/><rect width="17.6" height="11.6" x="513.2" y="430.8" fill="#925E18"/><rect width="17.5" height="7.8" x="505.4" y="416.6" fill="#925E18"/><rect width="9.7" height="6.4" x="513.2" y="424.4" fill="#925E18"/><rect width="9" height="30.8" x="513.8" y="385.9" fill="#925E18"/><rect width="47.2" height="38.3" x="166.7" y="188.7" fill="#925E18"/><rect width="12.7" height="30.2" x="158.1" y="201" fill="#925E18"/><rect width="17.7" height="18.5" x="174.8" y="223.6" fill="#925E18"/><rect width="7.7" height="46.1" x="260.5" y="175.7" fill="#925E18"/><rect width="6.2" height="18.6" x="266.6" y="177.8" fill="#925E18"/><rect width="21.4" height="4.5" x="272.3" y="178.6" fill="#925E18"/><rect width="19.3" height="4.2" x="242.4" y="169.4" fill="#925E18"/><rect width="11.4" height="8.6" x="225" y="136.9" fill="#BE7714"/><rect width="6.7" height="25.6" x="219.4" y="145.5" fill="#BE7714"/><rect width="9.3" height="33.9" x="251.1" y="188" fill="#BE7714"/><rect width="26.7" height="10.1" x="276.6" y="169.4" fill="#BE7714"/><rect width="9.4" height="10.4" x="293.9" y="161.1" fill="#BE7714"/><rect width="9.4" height="25.7" x="352.8" y="451" fill="#BE7714"/><rect width="8.4" height="25.5" x="361.4" y="433.4" fill="#BE7714"/><rect width="9.1" height="9" x="369.8" y="433.4" fill="#BE7714"/><rect width="8.6" height="25.4" x="505.3" y="391.3" fill="#BE7714"/><rect width="8.7" height="24" x="496.8" y="408.9" fill="#BE7714"/><rect width="8" height="18.1" x="505.1" y="424.3" fill="#925E18"/><rect width="17.4" height="26.7" x="310.4" y="153" fill="#633B0F"/><rect width="8.2" height="16.5" x="302.6" y="145.5" fill="#633B0F"/><rect width="29.4" height="9.1" x="285.1" y="154.9" fill="#633B0F"/><rect width="17.3" height="8.4" x="276.6" y="162.8" fill="#633B0F"/><rect width="16.9" height="9.1" x="260.5" y="170.4" fill="#633B0F"/><rect width="29.9" height="7.7" x="242.4" y="162.8" fill="#633B0F"/><rect width="18" height="16.8" x="226" y="171.1" fill="#633B0F"/><rect width="25.8" height="26.3" x="166.7" y="162.4" fill="#633B0F"/><rect width="7.6" height="16.8" x="184.5" y="188" fill="#633B0F"/><rect width="8" height="17.9" x="192.6" y="194.6" fill="#633B0F"/><rect width="15.7" height="22.6" x="210.3" y="201" fill="#633B0F"/><rect width="33.8" height="8.3" x="200.4" y="204.2" fill="#633B0F"/><rect width="9.7" height="26.9" x="174.8" y="238.8" fill="#633B0F"/><rect width="51.3" height="10.4" x="183.7" y="255.3" fill="#633B0F"/><rect width="24.2" height="9.1" x="201.9" y="247.3" fill="#633B0F"/><rect width="51.3" height="17.9" x="226" y="263.6" fill="#633B0F"/><rect width="21.6" height="21.8" x="251.1" y="276.5" fill="#633B0F"/><rect width="20.4" height="8.2" x="266.5" y="255.3" fill="#633B0F"/><rect width="9.2" height="40.9" x="268.9" y="188.7" fill="#633B0F"/><rect width="10.3" height="56.7" x="276.6" y="198.6" fill="#633B0F"/><rect width="19.8" height="37.8" x="299.8" y="201" fill="#633B0F"/><rect width="22.1" height="28.2" x="292.2" y="238.8" fill="#633B0F"/><rect width="13.6" height="9.5" x="292.8" y="267" fill="#633B0F"/><rect width="17.6" height="17.1" x="302" y="171.6" fill="#633B0F"/><rect width="21.6" height="19.1" x="292.8" y="179.5" fill="#633B0F"/><rect width="9.8" height="9.6" x="285.7" y="187" fill="#633B0F"/><rect width="17.2" height="26.7" x="116" y="424.4" fill="#633B0F"/><rect width="19.2" height="19.8" x="105.1" y="447.5" fill="#633B0F"/><rect width="7.8" height="8.7" x="133.2" y="450.2" fill="#633B0F"/><rect width="7.8" height="34.8" x="91.9" y="491.8" fill="#633B0F"/><rect width="16.2" height="8.5" x="79.6" y="518" fill="#633B0F"/><rect width="27.8" height="8.2" x="107.8" y="518.3" fill="#633B0F"/><rect width="19.5" height="9.2" x="116" y="509.2" fill="#633B0F"/><rect width="8.7" height="7.8" x="124.5" y="501.4" fill="#633B0F"/><rect width="27.4" height="17.7" x="141" y="508.8" fill="#633B0F"/><rect width="18.3" height="41.8" x="158.3" y="467" fill="#633B0F"/><rect width="17.2" height="50.9" x="174.8" y="424.4" fill="#633B0F"/><rect width="18.3" height="16.9" x="158.3" y="416.6" fill="#633B0F"/><rect width="10.1" height="19.7" x="292.5" y="509.7" fill="#633B0F"/><rect width="18.3" height="16.9" x="300.4" y="518.3" fill="#633B0F"/><rect width="8" height="8.6" x="310.6" y="509.7" fill="#633B0F"/><rect width="10.8" height="35.6" x="327.2" y="501.4" fill="#633B0F"/><rect width="10.3" height="35.6" x="353" y="501.4" fill="#633B0F"/><rect width="18.4" height="27.3" x="336.5" y="509.7" fill="#633B0F"/><rect width="8.5" height="35.9" x="369.7" y="501.1" fill="#633B0F"/><rect width="17.5" height="25.5" x="378" y="509.7" fill="#633B0F"/><rect width="10.3" height="8.3" x="317.8" y="467" fill="#633B0F"/><rect width="16.1" height="18.8" x="328.2" y="450.2" fill="#633B0F"/><rect width="16.5" height="18.6" x="336.5" y="431.5" fill="#633B0F"/><rect width="8.5" height="8.8" x="344.3" y="424.4" fill="#633B0F"/><rect width="9.9" height="8.8" x="351.5" y="415.6" fill="#633B0F"/><rect width="28.8" height="25.8" x="369.8" y="458.9" fill="#633B0F"/><rect width="24.8" height="16.2" x="387.7" y="451.1" fill="#633B0F"/><rect width="7.9" height="8.8" x="387.7" y="415.6" fill="#633B0F"/><rect width="22.6" height="59.2" x="395.5" y="399.4" fill="#633B0F"/><rect width="20.7" height="36.1" x="417.1" y="398.3" fill="#633B0F"/><rect width="27.1" height="17.5" x="427.4" y="390.3" fill="#633B0F"/><rect width="42.9" height="25.2" x="436.6" y="382.6" fill="#633B0F"/><rect width="16.2" height="24.6" x="471.9" y="374.4" fill="#633B0F"/><rect width="24.9" height="36.4" x="454.7" y="396.8" fill="#633B0F"/><rect width="16.5" height="16.9" x="471.9" y="425.1" fill="#633B0F"/><rect width="30.6" height="27.5" x="478.3" y="432.1" fill="#633B0F"/><rect width="44.3" height="15.6" x="486.5" y="468.2" fill="#633B0F"/><rect width="33.7" height="9.7" x="488.4" y="458.5" fill="#633B0F"/><rect width="17.1" height="25.4" x="479.9" y="483.4" fill="#633B0F"/><rect width="25.3" height="16.3" x="505.5" y="492.5" fill="#633B0F"/><rect width="34.2" height="24.8" x="488.1" y="348.3" fill="#633B0F"/><rect width="15.6" height="17.3" x="481.2" y="365.3" fill="#633B0F"/><rect width="17.3" height="28.4" x="496.8" y="330.8" fill="#633B0F"/></g><rect width="110.7" height="8.5" x="217.2" y="44.2"/><rect width="33.8" height="7.9" x="234.2" y="52.8"/><rect width="17.4" height="7.9" x="208.6" y="52.8"/><rect width="34.2" height="7.9" x="310.1" y="52.8"/><rect width="33.1" height="16.1" x="327.8" y="60.6"/><rect width="9.2" height="33.8" x="258.9" y="60.6"/><rect width="59.8" height="9" x="268.1" y="68.6"/><rect width="25.6" height="16.8" x="268.1" y="77.6"/><rect width="8.7" height="59.4" x="242.4" y="60.6"/><rect width="7.7" height="8.4" x="251.1" y="77.6"/><rect width="8.7" height="25.4" x="217.3" y="60.6"/><rect width="16.1" height="9.9" x="192.6" y="60.6"/><rect width="25.6" height="9" x="183" y="68.6"/><rect width="9.2" height="40.7" x="208" y="79.4"/><rect width="6.8" height="16.9" x="201.9" y="77.5"/><rect width="8.2" height="16.8" x="183" y="77.6"/><rect width="10.7" height="8.4" x="191.2" y="86"/><rect width="41.7" height="8.9" x="327.8" y="68.6"/><rect width="15.4" height="8.5" x="362.3" y="77.5"/><rect width="127.7" height="8.4" x="258.9" y="86"/><rect width="33.5" height="8.5" x="293.7" y="94.4"/><rect width="17.1" height="8.9" x="310.1" y="103"/><rect width="17.8" height="17.4" x="377.7" y="94.4"/><rect width="84.7" height="8.2" x="319.6" y="111.9"/><rect width="33.5" height="8.2" x="395.5" y="120.1"/><rect width="16.7" height="8.2" x="412.2" y="111.9"/><rect width="16.9" height="17.4" x="420.6" y="94.4"/><rect width="8.5" height="16.5" x="429" y="78"/><rect width="8.2" height="42" x="437.5" y="35.7"/><rect width="8.5" height="24.9" x="445.7" y="35.7"/><rect width="25.6" height="8.5" x="454.2" y="35.7"/><rect width="25.3" height="8.5" x="462.8" y="44.2"/><rect width="17.1" height="7.9" x="479.9" y="52.8"/><rect width="8.5" height="17" x="488.4" y="60.6"/><rect width="25.3" height="24.3" x="496.9" y="95.8"/><rect width="17.1" height="18.2" x="496.9" y="77.6"/><rect width="8.5" height="9" x="496.9" y="68.6"/><rect width="9.3" height="24.9" x="487.7" y="111.9"/><rect width="8.2" height="26.6" x="479.9" y="120.1"/><rect width="7.9" height="18.1" x="472" y="136.8"/><rect width="9.2" height="15.7" x="462.8" y="154.9"/><rect width="9" height="16.7" x="454.2" y="162.8"/><rect width="8.5" height="17.6" x="445.7" y="171.1"/><rect width="8.2" height="42.7" x="514" y="120.1"/><rect width="8.5" height="24.6" x="505.5" y="154.9"/><rect width="8.5" height="26" x="496.9" y="162.8"/><rect width="8.5" height="17.1" x="488.4" y="179.5"/><rect width="8.7" height="16.7" x="479.9" y="188"/><rect width="7.9" height="16.7" x="472" y="196.6"/><rect width="9.2" height="8.4" x="462.8" y="204.9"/><rect width="17.8" height="7.9" x="454.2" y="213.3"/><rect width="8.2" height="25.3" x="514" y="171.1"/><rect width="8.5" height="32.5" x="522.2" y="188.7"/><rect width="8.2" height="25.3" x="514" y="221.2"/><rect width="8.5" height="15" x="505.5" y="231.4"/><rect width="8.5" height="16.7" x="496.9" y="238.9"/><rect width="8.5" height="8.4" x="488.4" y="247.3"/><rect width="8.5" height="8.5" x="479.9" y="255.7"/><rect width="8.5" height="32.8" x="522.2" y="238.9"/><rect width="8.2" height="17.1" x="514" y="264.2"/><rect width="8.5" height="60.1" x="505.5" y="272.8"/><rect width="8.5" height="16.4" x="496.9" y="281.3"/><rect width="8.9" height="8.2" x="488.1" y="289.5"/><rect width="8.5" height="9.2" x="479.9" y="297.7"/><rect width="16.7" height="7.9" x="505.5" y="332.9"/><rect width="8.5" height="16.1" x="496.9" y="315.1"/><rect width="8.5" height="25.8" x="488.4" y="323.1"/><rect width="17.4" height="9.2" x="445.7" y="297.7"/><rect width="177.3" height="8.5" x="302.6" y="264.2"/><rect width="16.1" height="49.9" x="438.2" y="231.4"/><rect width="127.8" height="7.5" x="310.4" y="238.9"/><rect width="16.5" height="26.6" x="429.2" y="204.8"/><rect width="9.2" height="33.6" x="429" y="171.1"/><rect width="8.7" height="33.1" x="420.6" y="154.9"/><rect width="8.4" height="16.9" x="412.2" y="179.5"/><rect width="101.8" height="7.7" x="310.4" y="188.7"/><rect width="101.1" height="8.4" x="327.8" y="162.8"/><rect width="8.5" height="76.5" x="327.8" y="128.3"/><rect width="8.4" height="34.5" x="412.2" y="128.3"/><rect width="8.2" height="26.6" x="404.4" y="128.3"/><rect width="68" height="8.7" x="336.4" y="136.8"/><rect width="8.7" height="8.5" x="420.6" y="128.3"/><rect width="17.4" height="18.1" x="310.4" y="136.8"/><rect width="9.2" height="50.6" x="318.6" y="86.2"/><rect width="76.5" height="17.3" x="234.2" y="128.3"/><rect width="24.6" height="9.2" x="278" y="145.5"/><rect width="59.1" height="7.9" x="226" y="154.9"/><rect width="8.2" height="8.4" x="234.2" y="162.8"/><rect width="8.5" height="8.7" x="268.1" y="162.8"/><rect width="33.8" height="9.4" x="234.2" y="145.5"/><rect width="42.5" height="8.2" x="251.1" y="120.1"/><rect width="57.7" height="8.2" x="210.3" y="111.9"/><rect width="16.9" height="8.4" x="234.2" y="103.1"/><rect width="9.6" height="76.6" x="81.5" y="86.2"/><rect width="16.7" height="34.3" x="91.1" y="68.6"/><rect width="8.2" height="24.4" x="107.8" y="44.2"/><rect width="8.4" height="8" x="99.5" y="60.6"/><rect width="24.9" height="17.1" x="116" y="35.7"/><rect width="16.5" height="33.4" x="133" y="52.8"/><rect width="17.8" height="25.5" x="166.7" y="77.6"/><rect width="25.8" height="9.7" x="141" y="85.8"/><rect width="25.4" height="41.4" x="149.5" y="95.5"/><rect width="35.5" height="8.2" x="174.8" y="120.1"/><rect width="25" height="33.6" x="183.6" y="111.9"/><rect width="8.7" height="17.2" x="208.6" y="128.7"/><rect width="16.6" height="8.9" x="99.5" y="103"/><rect width="16.6" height="8.6" x="107.8" y="111.5"/><rect width="8.2" height="25" x="141.2" y="111.9"/><rect width="25.2" height="9.7" x="116.1" y="120.1"/><rect width="17.2" height="25.1" x="124.4" y="129.8"/><rect width="16.9" height="17.5" x="116.1" y="153.7"/><rect width="8.4" height="16.8" x="91.1" y="128.7"/><rect width="16.6" height="9.5" x="99.5" y="144.2"/><rect width="8.4" height="7.4" x="99.5" y="136.8"/><rect width="24.7" height="27.5" x="158.9" y="136.8"/><rect width="16.1" height="18.5" x="192.6" y="143.9"/><rect width="9" height="8.3" x="183.6" y="154.1"/><rect width="25.8" height="9" x="174.8" y="162.4"/><rect width="34.1" height="9.2" x="132.7" y="162.4"/><rect width="8" height="26" x="91.1" y="162.8"/><rect width="8.4" height="9" x="99.5" y="179.7"/><rect width="16.6" height="26" x="107.8" y="170.4"/><rect width="42.4" height="9" x="124.4" y="179.7"/><rect width="17.3" height="33.4" x="149.5" y="171.4"/><rect width="8" height="25.3" x="192.6" y="171.1"/><rect width="7.4" height="16.7" x="200.6" y="188.1"/><rect width="29" height="8.4" x="205.2" y="196.4"/><rect width="8.1" height="76.3" x="166.7" y="196.4"/><rect width="8.6" height="34.2" x="149.5" y="204.8"/><rect width="8.3" height="57.7" x="99.5" y="188.7"/><rect width="8.3" height="7" x="107.8" y="238.9"/><rect width="10.3" height="76.5" x="89.9" y="212.5"/><rect width="8.3" height="25.5" x="107.8" y="196.4"/><rect width="8.5" height="17.1" x="116.1" y="204.8"/><rect width="24.9" height="8.5" x="124.5" y="213.3"/><rect width="16.5" height="8.6" x="133" y="230.4"/><rect width="8.6" height="33.8" x="158.1" y="230.4"/><rect width="58.9" height="8.7" x="107.8" y="255.5"/><rect width="16.6" height="8.5" x="99.5" y="264.2"/><rect width="18.6" height="33.5" x="81.5" y="255.5"/><rect width="9.6" height="16.5" x="89.9" y="289"/><rect width="8.9" height="34.1" x="98.9" y="280.7"/><rect width="8.3" height="25.9" x="107.8" y="297.3"/><rect width="76.5" height="8.4" x="116" y="280.7"/><rect width="17.7" height="33.5" x="174.8" y="264.2"/><rect width="8" height="8.1" x="192.6" y="264.2"/><rect width="41.7" height="17.1" x="192.6" y="221.9"/><rect width="9" height="8.4" x="183.6" y="238.9"/><rect width="16.9" height="16.9" x="234.2" y="230.4"/><rect width="9.3" height="16.7" x="251.1" y="238.8"/><rect width="17.4" height="50.9" x="285.1" y="196.4"/><rect width="25.3" height="8.3" x="302.6" y="196.4"/><rect width="8.2" height="9" x="319.6" y="179.7"/><rect width="9.2" height="41.7" x="318.6" y="204.8"/><rect width="102.1" height="8.5" x="327.2" y="213.3"/><rect width="8.2" height="34.2" x="310.4" y="246.5"/><rect width="8.5" height="50.4" x="285.1" y="247.3"/><rect width="33.1" height="8.7" x="277.4" y="272.8"/><rect width="10.3" height="9.2" x="276.6" y="263.6"/><rect width="17.1" height="16.4" x="268.1" y="281.3"/><rect width="8.5" height="9.2" x="268.1" y="297.7"/><rect width="152" height="8.2" x="293.7" y="289.5"/><rect width="7.5" height="8.2" x="438.2" y="281.3"/><rect width="16.2" height="9.2" x="404.4" y="297.7"/><rect width="25.6" height="7.9" x="386.6" y="306.9"/><rect width="142.5" height="9" x="260.5" y="314.8"/><rect width="7.6" height="25.3" x="260.5" y="289.5"/><rect width="17.4" height="8.1" x="208.6" y="264.2"/><rect width="16.7" height="8.7" x="226" y="272.3"/><rect width="16.9" height="8.9" x="234.2" y="280.7"/><rect width="7.1" height="8.7" x="244" y="289"/><rect width="24.8" height="8.7" x="192.6" y="289"/><rect width="17.4" height="9.2" x="208.6" y="297.7"/><rect width="26.2" height="17.1" x="234.2" y="297.7"/><rect width="8.2" height="34" x="226" y="306.9"/><rect width="16.9" height="9.1" x="234.2" y="314.8"/><rect width="7.7" height="9.7" x="175.9" y="297.3"/><rect width="84.5" height="7.9" x="116" y="306.9"/><rect width="24.8" height="8.4" x="192.6" y="314.8"/><rect width="8.7" height="8.7" x="208.6" y="323.2"/><rect width="8.7" height="17.7" x="217.3" y="331.9"/><rect width="16.7" height="24.5" x="200.6" y="349.6"/><rect width="42.2" height="17.1" x="166.7" y="374.1"/><rect width="8.5" height="25.9" x="116" y="314.8"/><rect width="8.1" height="35.1" x="166.7" y="313.3"/><rect width="17.7" height="9.9" x="174.8" y="330.8"/><rect width="17" height="8.8" x="183.6" y="340.7"/><rect width="42.4" height="8.7" x="124.4" y="323.2"/><rect width="16.8" height="9.9" x="166.7" y="364.2"/><rect width="8.4" height="50.8" x="158.3" y="331.9"/><rect width="8.8" height="101.5" x="124.4" y="331.9"/><rect width="7.8" height="109.4" x="133.2" y="340.7"/><rect width="8.7" height="33.1" x="149.6" y="349.6"/><rect width="8.7" height="8.9" x="141" y="348.3"/><rect width="8.7" height="16.5" x="141" y="366.1"/><rect width="11.3" height="25.5" x="116" y="398.9"/><rect width="42.6" height="7.8" x="141" y="391.2"/><rect width="25.3" height="17.7" x="158.3" y="398.9"/><rect width="8.7" height="51.1" x="149.6" y="407.8"/><rect width="8.7" height="8.7" x="141" y="450.2"/><rect width="8.9" height="7.8" x="174.8" y="416.6"/><rect width="8.5" height="34.6" x="183.6" y="407.8"/><rect width="8.3" height="33.8" x="107.8" y="425.1"/><rect width="7.6" height="24.5" x="260.5" y="323.8"/><rect width="9.3" height="110.5" x="251.1" y="331.9"/><rect width="8.5" height="25.8" x="242.7" y="348.3"/><rect width="9.8" height="25.4" x="234.2" y="357.3"/><rect width="8.3" height="50.7" x="226" y="374.4"/><rect width="8.7" height="25.8" x="217.3" y="416.6"/><rect width="8.5" height="16.9" x="192.1" y="425.1"/><rect width="34.6" height="25.8" x="192.1" y="441.5"/><rect width="33.6" height="8.7" x="353" y="323.2"/><rect width="42.6" height="9.9" x="327.2" y="330.8"/><rect width="84.9" height="7.9" x="268.1" y="340.4"/><rect width="35.3" height="9.9" x="310.5" y="347.4"/><rect width="17.9" height="9.3" x="318.6" y="357.3"/><rect width="67.7" height="8.3" x="260.5" y="366.1"/><rect width="26" height="17.1" x="310.5" y="374.1"/><rect width="50" height="8.5" x="260.5" y="382.6"/><rect width="16.1" height="25.5" x="302.6" y="391.2"/><rect width="34.5" height="8.8" x="268.1" y="407.8"/><rect width="16.5" height="25.3" x="293.9" y="416.6"/><rect width="10.7" height="16.4" x="285.5" y="425.1"/><rect width="8.6" height="34.5" x="259.5" y="424.4"/><rect width="20.1" height="8.2" x="268.1" y="433.3"/><rect width="34.1" height="8.7" x="268.1" y="450.2"/><rect width="8.3" height="8.2" x="293.9" y="442"/><rect width="25.6" height="8.9" x="420.6" y="331.9"/><rect width="58.7" height="8.5" x="429.7" y="340.4"/><rect width="10.4" height="8.5" x="479.9" y="331.9"/><rect width="8.2" height="17.4" x="479.9" y="348.3"/><rect width="9.3" height="17.3" x="471.9" y="357.1"/><rect width="8.8" height="16.9" x="463.1" y="365.7"/><rect width="8.9" height="17.2" x="386.6" y="348.9"/><rect width="8.8" height="17.3" x="395.5" y="357.1"/><rect width="17.6" height="8.3" x="403" y="366.1"/><rect width="50.6" height="8.5" x="412.5" y="374.1"/><rect width="17.2" height="8.5" x="420.6" y="382.6"/><rect width="9.4" height="8.7" x="360.4" y="365.7"/><rect width="16.8" height="8.5" x="369.8" y="382.6"/><rect width="51.5" height="8.7" x="378.2" y="391.2"/><rect width="8.9" height="18.3" x="386.6" y="398.3"/><rect width="17.1" height="42.1" x="327.2" y="391.2"/><rect width="8.7" height="24.5" x="344.3" y="399.9"/><rect width="33.6" height="9.2" x="353" y="407.5"/><rect width="9.6" height="42.8" x="318.6" y="424.4"/><rect width="8.4" height="18.6" x="328.2" y="431.5"/><rect width="8" height="42.8" x="310.6" y="450.2"/><rect width="16.1" height="8.1" x="328.2" y="467.2"/><rect width="17.9" height="9.3" x="318.6" y="475.3"/><rect width="9.9" height="25.8" x="302.2" y="467.2"/><rect width="9.7" height="24.5" x="292.5" y="475.3"/><rect width="8.3" height="17.1" x="226" y="450.2"/><rect width="16.8" height="16.6" x="234.4" y="458.7"/><rect width="25.5" height="17.6" x="251.1" y="467"/><rect width="24.4" height="15.9" x="268.1" y="475.8"/><rect width="9" height="42.8" x="285.3" y="491.8"/><rect width="8.2" height="8.7" x="294.3" y="526.5"/><rect width="7.8" height="17.6" x="133.2" y="467"/><rect width="8.1" height="42.2" x="99.7" y="441.6"/><rect width="9.3" height="34.1" x="90.4" y="458.9"/><rect width="25.7" height="16.8" x="90.4" y="467"/><rect width="17.2" height="8.3" x="116" y="467"/><rect width="18.3" height="9.2" x="73.6" y="483.8"/><rect width="17.1" height="25.1" x="64.6" y="501.4"/><rect width="8.1" height="42.2" x="73.6" y="493"/><rect width="101.6" height="8.7" x="73.6" y="526.5"/><rect width="8.1" height="26.7" x="99.7" y="499.8"/><rect width="7.8" height="25.1" x="133.2" y="501.4"/><rect width="8.7" height="7.5" x="141" y="501.4"/><rect width="8.1" height="16.8" x="166.7" y="467"/><rect width="8.4" height="25.1" x="166.7" y="501.4"/><rect width="8.9" height="33.5" x="174.8" y="475.3"/><rect width="8.9" height="16.6" x="183.7" y="467.2"/><rect width="10" height="8.1" x="192.1" y="467.2"/><rect width="8.6" height="33.8" x="318.6" y="501.4"/><rect width="8.1" height="33.2" x="361.7" y="501.4"/><rect width="93" height="8.7" x="302.6" y="535.2"/><rect width="17.8" height="8.7" x="386.6" y="526.5"/><rect width="16.8" height="9.3" x="369.8" y="475.3"/><rect width="25.1" height="32.8" x="395.5" y="467"/><rect width="17.3" height="7.9" x="378.2" y="484.6"/><rect width="8.6" height="9.6" x="386.9" y="491.8"/><rect width="17" height="10.6" x="395.5" y="498.3"/><rect width="8.8" height="21.1" x="395.5" y="505.4"/><rect width="8.6" height="25.5" x="420.6" y="467"/><rect width="17.6" height="8.3" x="403" y="458.7"/><rect width="8.8" height="42.1" x="411.8" y="416.6"/><rect width="9.1" height="33.8" x="420.6" y="425.1"/><rect width="16.2" height="18.5" x="514" y="338.7"/><rect width="17" height="76.2" x="522.2" y="357.1"/><rect width="8.8" height="50.5" x="530.7" y="433.3"/><rect width="8.4" height="41.6" x="539.5" y="467.2"/><rect width="8.5" height="16.6" x="530.7" y="501.4"/><rect width="8.6" height="16.6" x="454.5" y="391.2"/><rect width="8.3" height="33.8" x="446.2" y="399.5"/><rect width="8.6" height="42.2" x="454.5" y="416.4"/><rect width="8.3" height="17.1" x="446.2" y="450.2"/><rect width="18.6" height="8.1" x="429.7" y="458.9"/><rect width="8.6" height="8.8" x="429.2" y="467"/><rect width="8.8" height="16.9" x="463.1" y="433.3"/><rect width="8" height="25.5" x="471.9" y="441.5"/><rect width="8.5" height="34.5" x="479.9" y="458.5"/><rect width="8" height="34.2" x="471.9" y="483.8"/><rect width="50.9" height="9.2" x="479.9" y="508.8"/><rect width="8.5" height="17.2" x="496.9" y="492.5"/><rect width="8.3" height="19.6" x="513.8" y="491.8"/></g></g></svg>