<svg xmlns="http://www.w3.org/2000/svg" xmlns:xlink="http://www.w3.org/1999/xlink" x="0" y="0" enable-background="new 0 0 403.4 409.5" version="1.1" viewBox="0 0 403.4 409.5" xml:space="preserve"><g id="Réteg_4"><g><rect width="40" height="26" x="59.8" y="48"/><rect width="16" height="41" x="43.8" y="61"/><rect width="28.3" height="41.9" x="87.5" y="74"/><rect width="30.1" height="13.9" x="59.8" y="102"/><rect width="175.5" height="13" x="99.8" y="48"/><rect width="26.3" height="13" x="262.6" y="61"/><rect width="25.9" height="15.1" x="275.8" y="74"/><rect width="14.1" height="228.2" x="101.7" y="115.9"/><rect width="11.5" height="27.6" x="115.8" y="303.6"/><rect width="215.1" height="13.5" x="115.8" y="344.2"/><rect width="13.5" height="40.6" x="328.5" y="303.6"/><rect width="12.9" height="16.5" x="141.5" y="331.2"/><rect width="201.1" height="12.9" x="127.3" y="290.7"/><rect width="14.1" height="27.6" x="154.4" y="303.6"/><rect width="56.3" height="16.5" x="138.7" y="248.3"/><rect width="95.9" height="12.9" x="139.1" y="210.7"/><rect width="125" height="15.3" x="137.7" y="155.4"/><rect width="121.2" height="13.9" x="141.5" y="102"/><rect width="12.7" height="201.5" x="289" y="89.1"/><rect width="12.6" height="28" x="74.9" y="74" fill="#7D4B22"/><rect width="15.1" height="14" x="59.8" y="88" fill="#7D4B22"/><rect width="11.5" height="229.6" x="115.8" y="74" fill="#7D4B22"/><rect width="161.6" height="13.5" x="127.3" y="277.1" fill="#7D4B22"/><rect width="89.8" height="14.1" x="138.1" y="223.6" fill="#7D4B22"/><rect width="109.6" height="14.7" x="138.9" y="170.7" fill="#7D4B22"/><rect width="107" height="13.6" x="141.5" y="115.9" fill="#7D4B22"/><rect width="14.1" height="40.6" x="127.3" y="303.6" fill="#7D4B22"/><rect width="11.5" height="12.9" x="115.8" y="331.2" fill="#7D4B22"/><rect width="13.5" height="40.6" x="168.5" y="303.6" fill="#7D4B22"/><rect width="174.1" height="16.5" x="154.4" y="331.2" fill="#925D35"/><rect width="15.1" height="14" x="59.8" y="74" fill="#925D35"/><rect width="132.9" height="13.8" x="182" y="317.4" fill="#925D35"/><rect width="121.1" height="15.1" x="127.3" y="74" fill="#925D35"/><rect width="27.7" height="14" x="235" y="88" fill="#925D35"/><rect width="27.1" height="12.9" x="127.3" y="89.1" fill="#925D35"/><rect width="14.1" height="27.5" x="127.3" y="102" fill="#925D35"/><rect width="130.9" height="14.7" x="144.4" y="129.5" fill="#925D35"/><rect width="12.7" height="180.7" x="262.6" y="96.5" fill="#925D35"/><rect width="14.1" height="13.6" x="248.5" y="115.9" fill="#925D35"/><rect width="27.7" height="11.2" x="235" y="144.2" fill="#925D35"/><rect width="121.2" height="12.4" x="141.5" y="185.4" fill="#925D35"/><rect width="14.1" height="14.7" x="248.5" y="170.7" fill="#925D35"/><rect width="162.8" height="13" x="99.8" y="61" fill="#A7704E"/><rect width="27.3" height="15.1" x="248.5" y="74" fill="#A7704E"/><rect width="26.8" height="12" x="262.1" y="89.1" fill="#A7704E"/><rect width="13.7" height="176" x="275.3" y="101.1" fill="#A7704E"/><rect width="80.6" height="12.9" x="154.4" y="89.1" fill="#A7704E"/><rect width="13.2" height="147.6" x="127.3" y="129.5" fill="#A7704E"/><rect width="101.1" height="11.2" x="133.9" y="144.2" fill="#A7704E"/><rect width="124.3" height="12.9" x="138.3" y="197.7" fill="#A7704E"/><rect width="123.7" height="14.1" x="138.9" y="237.7" fill="#A7704E"/><rect width="27.7" height="37.9" x="235" y="206.6" fill="#A7704E"/><rect width="7.1" height="21.3" x="227.9" y="223.2" fill="#A7704E"/><rect width="67.7" height="25.3" x="195" y="251.8" fill="#A7704E"/><rect width="62.8" height="12.6" x="135.7" y="264.5" fill="#A7704E"/><rect width="146.4" height="13.8" x="182" y="303.6" fill="#A7704E"/><rect width="13.5" height="13.8" x="315" y="317.4" fill="#A7704E"/><rect width="108.2" height="14.7" x="140.6" y="129.5" fill="#925D35"/><rect width="134.7" height="12.4" x="140.6" y="185.4" fill="#925D35"/><rect width="26.8" height="14.7" x="248.5" y="170.7" fill="#925D35"/><rect width="12.7" height="79.4" x="262.6" y="197.7" fill="#925D35"/><rect width="12.9" height="27.6" x="141.5" y="303.6" fill="#A7704E"/></g></g></svg>