<svg xmlns="http://www.w3.org/2000/svg" xmlns:xlink="http://www.w3.org/1999/xlink" x="0" y="0" enable-background="new 0 0 672 672" version="1.1" viewBox="0 0 672 672" xml:space="preserve"><g id="Réteg_3"><g><rect width="309" height="37" x="185.9" y="63" fill="#030707"/><rect width="35" height="33" x="150.9" y="100" fill="#030707"/><rect width="35" height="70" x="115.9" y="133" fill="#030707"/><rect width="34" height="274" x="81.9" y="203" fill="#030707"/><rect width="70" height="35" x="115.9" y="477" fill="#030707"/><rect width="33" height="104" x="185.9" y="512" fill="#030707"/><rect width="276" height="35" x="218.9" y="581" fill="#030707"/><rect width="34" height="35" x="254.9" y="546" fill="#030707"/><rect width="35" height="35" x="321.9" y="546" fill="#030707"/><rect width="35.9" height="35" x="392" y="546" fill="#030707"/><rect width="35" height="69" x="459.9" y="512" fill="#030707"/><rect width="69" height="35" x="494.9" y="477" fill="#030707"/><rect width="35" height="274" x="563.9" y="203" fill="#030707"/><rect width="34.5" height="70" x="529.4" y="133" fill="#030707"/><rect width="34.5" height="33" x="494.9" y="100" fill="#030707"/><rect width="35" height="34" x="321.9" y="409" fill="#030707"/><rect width="103.1" height="34" x="288.9" y="443" fill="#030707"/><rect width="70" height="172" x="218.9" y="237" fill="#030707"/><rect width="33" height="101" x="185.9" y="272" fill="#030707"/><rect width="33" height="101" x="288.9" y="272" fill="#030707"/><rect width="67.9" height="172" x="392" y="237" fill="#030707"/><rect width="70.2" height="101" x="356.9" y="272" fill="#030707"/><rect width="54.3" height="101" x="440.6" y="272" fill="#030707"/><rect width="35" height="70" x="150.9" y="133" fill="#B7B7B7"/><rect width="35" height="274" x="115.9" y="203" fill="#B7B7B7"/><rect width="35" height="68" x="150.9" y="409" fill="#B7B7B7"/><rect width="33" height="43.9" x="185.9" y="477" fill="#B7B7B7"/></g></g></svg>