<svg xmlns="http://www.w3.org/2000/svg" xmlns:xlink="http://www.w3.org/1999/xlink" x="0" y="0" enable-background="new 0 0 218.4 395" version="1.1" viewBox="0 0 218.4 395" xml:space="preserve"><g id="Réteg_2"><rect width="16.7" height="149.8" x="75.9" y="89.4" fill="#7E8A8C" transform="matrix(0.9994 -3.324885e-02 3.324885e-02 0.9994 -5.4174 2.8915)"/><rect width="14.7" height="27.1" x="89.6" y="62.1" fill="#7E8A8C"/><rect width="16.5" height="149.4" x="91.3" y="89.2" fill="#BBCBCD" transform="matrix(0.9999 -1.654636e-02 1.654636e-02 0.9999 -2.6979 1.6696)"/><rect width="16.1" height="189.7" x="104.1" y="49" fill="#ACBCBD" transform="matrix(0.9997 -2.289822e-02 2.289822e-02 0.9997 -3.2647 2.6066)"/><rect width="14.2" height="136.6" x="119.3" y="102" fill="#BBCBCD" transform="matrix(0.9998 -1.888336e-02 1.888336e-02 0.9998 -3.1938 2.4174)"/><rect width="12.1" height="39.8" x="118" y="62.1" fill="#DAEAED"/><rect width="15.5" height="149.8" x="130.2" y="89.2" fill="#DAEAED" transform="matrix(-0.9996 2.947848e-02 -2.947848e-02 -0.9996 280.6826 323.9892)"/></g><g id="Réteg_3"><rect width="122.6" height="23.4" x="53.4" y="236.8" fill="#875957" transform="matrix(0.9997 -2.467815e-02 2.467815e-02 0.9997 -6.0981 2.9054)"/><rect width="93.9" height="19.9" x="69.6" y="255.7" fill="#875957" transform="matrix(-0.9997 2.467826e-02 -2.467826e-02 -0.9997 239.642 528.4172)"/><rect width="68.5" height="18" x="82.8" y="270.5" fill="#875957" transform="matrix(-0.9997 2.467826e-02 -2.467826e-02 -0.9997 241.0318 555.9946)"/><rect width="41.3" height="60.7" x="98.4" y="281.1" fill="#875957" transform="matrix(-0.9997 2.467826e-02 -2.467826e-02 -0.9997 245.6286 619.9232)"/><rect width="15.3" height="19.1" x="111.6" y="336.3" fill="#875957" transform="matrix(-1 2.538591e-03 -2.538591e-03 -1 239.2545 691.5078)"/><rect width="108.4" height="11.8" x="53.1" y="236" fill="#6C4645" transform="matrix(1 -3.486192e-03 3.486192e-03 1 -0.8426 0.3754)"/><rect width="93.9" height="14.6" x="54" y="245.2" fill="#6C4645"/><rect width="65.4" height="21.7" x="69.4" y="253.5" fill="#6C4645"/><rect width="17.8" height="82.7" x="109" y="272.5" fill="#6C4645"/><rect width="14.2" height="27.5" x="53.1" y="236.8" fill="#4D2E2E"/><rect width="15.6" height="27.5" x="67.2" y="249.3" fill="#4D2E2E"/><rect width="14.2" height="26.3" x="82.6" y="263" fill="#4D2E2E"/><rect width="14" height="69.2" x="95" y="273.2" fill="#4D2E2E"/><rect width="15.1" height="15" x="111.3" y="249.3" fill="#FFAF26"/></g></svg>